<svg xmlns="http://www.w3.org/2000/svg" xmlns:xlink="http://www.w3.org/1999/xlink" contentStyleType="text/css" height="528px" preserveAspectRatio="none" style="width:858px;height:528px;background:#FFFFFF;" version="1.1" viewBox="0 0 858 528" width="858px" zoomAndPan="magnify"><defs/><g><rect fill="none" height="250.9102" style="stroke:#000000;stroke-width:1.5;" width="831.5498" x="10" y="177.2031"/><line style="stroke:#181818;stroke-width:0.5;stroke-dasharray:5.0,5.0;" x1="51" x2="51" y1="83.6211" y2="445.1133"/><line style="stroke:#181818;stroke-width:0.5;stroke-dasharray:5.0,5.0;" x1="288.6855" x2="288.6855" y1="83.6211" y2="445.1133"/><line style="stroke:#181818;stroke-width:0.5;stroke-dasharray:5.0,5.0;" x1="526.2607" x2="526.2607" y1="83.6211" y2="445.1133"/><line style="stroke:#181818;stroke-width:0.5;stroke-dasharray:5.0,5.0;" x1="805.7568" x2="805.7568" y1="83.6211" y2="445.1133"/><text fill="#000000" font-family="sans-serif" font-size="14" lengthAdjust="spacing" textLength="56.0342" x="20" y="80.1074">Frontend</text><ellipse cx="51.0171" cy="13.5" fill="#E2E2F0" rx="8" ry="8" style="stroke:#181818;stroke-width:0.5;"/><path d="M51.0171,21.5 L51.0171,48.5 M38.0171,29.5 L64.0171,29.5 M51.0171,48.5 L38.0171,63.5 M51.0171,48.5 L64.0171,63.5 " fill="none" style="stroke:#181818;stroke-width:0.5;"/><text fill="#000000" font-family="sans-serif" font-size="14" lengthAdjust="spacing" textLength="56.0342" x="20" y="459.2207">Frontend</text><ellipse cx="51.0171" cy="471.2344" fill="#E2E2F0" rx="8" ry="8" style="stroke:#181818;stroke-width:0.5;"/><path d="M51.0171,479.2344 L51.0171,506.2344 M38.0171,487.2344 L64.0171,487.2344 M51.0171,506.2344 L38.0171,521.2344 M51.0171,506.2344 L64.0171,521.2344 " fill="none" style="stroke:#181818;stroke-width:0.5;"/><rect fill="#E2E2F0" height="32.6211" rx="2.5" ry="2.5" style="stroke:#181818;stroke-width:0.5;" width="68.4824" x="254.6855" y="50"/><text fill="#000000" font-family="sans-serif" font-size="14" lengthAdjust="spacing" textLength="54.4824" x="261.6855" y="72.1074">Backend</text><rect fill="#E2E2F0" height="32.6211" rx="2.5" ry="2.5" style="stroke:#181818;stroke-width:0.5;" width="68.4824" x="254.6855" y="444.1133"/><text fill="#000000" font-family="sans-serif" font-size="14" lengthAdjust="spacing" textLength="54.4824" x="261.6855" y="466.2207">Backend</text><rect fill="#E2E2F0" height="32.6211" rx="2.5" ry="2.5" style="stroke:#181818;stroke-width:0.5;" width="101.1514" x="476.2607" y="50"/><text fill="#000000" font-family="sans-serif" font-size="14" lengthAdjust="spacing" textLength="87.1514" x="483.2607" y="72.1074">OnlineService</text><rect fill="#E2E2F0" height="32.6211" rx="2.5" ry="2.5" style="stroke:#181818;stroke-width:0.5;" width="101.1514" x="476.2607" y="444.1133"/><text fill="#000000" font-family="sans-serif" font-size="14" lengthAdjust="spacing" textLength="87.1514" x="483.2607" y="466.2207">OnlineService</text><rect fill="#E2E2F0" height="32.6211" rx="2.5" ry="2.5" style="stroke:#181818;stroke-width:0.5;" width="49.793" x="781.7568" y="50"/><text fill="#000000" font-family="sans-serif" font-size="14" lengthAdjust="spacing" textLength="35.793" x="788.7568" y="72.1074">Redis</text><rect fill="#E2E2F0" height="32.6211" rx="2.5" ry="2.5" style="stroke:#181818;stroke-width:0.5;" width="49.793" x="781.7568" y="444.1133"/><text fill="#000000" font-family="sans-serif" font-size="14" lengthAdjust="spacing" textLength="35.793" x="788.7568" y="466.2207">Redis</text><rect fill="#EEEEEE" height="3" style="stroke:#EEEEEE;stroke-width:1.0;" width="851.5498" x="0" y="115.2666"/><line style="stroke:#000000;stroke-width:1.0;" x1="0" x2="851.5498" y1="115.2666" y2="115.2666"/><line style="stroke:#000000;stroke-width:1.0;" x1="0" x2="851.5498" y1="118.2666" y2="118.2666"/><rect fill="#EEEEEE" height="25.291" style="stroke:#000000;stroke-width:2.0;" width="162.0972" x="344.7263" y="103.6211"/><text fill="#000000" font-family="sans-serif" font-size="13" font-weight="bold" lengthAdjust="spacing" textLength="144.4854" x="350.7263" y="121.6494">Fetching User Statuses</text><polygon fill="#181818" points="276.9268,158.2031,286.9268,162.2031,276.9268,166.2031,280.9268,162.2031" style="stroke:#181818;stroke-width:1.0;"/><line style="stroke:#181818;stroke-width:1.0;" x1="51.0171" x2="282.9268" y1="162.2031" y2="162.2031"/><text fill="#000000" font-family="sans-serif" font-size="13" lengthAdjust="spacing" textLength="112.7153" x="58.0171" y="156.9404">send HTTP request</text><path d="M10,177.2031 L70.1709,177.2031 L70.1709,186.4941 L60.1709,196.4941 L10,196.4941 L10,177.2031 " fill="#EEEEEE" style="stroke:#000000;stroke-width:1.5;"/><rect fill="none" height="250.9102" style="stroke:#000000;stroke-width:1.5;" width="831.5498" x="10" y="177.2031"/><text fill="#000000" font-family="sans-serif" font-size="13" font-weight="bold" lengthAdjust="spacing" textLength="15.1709" x="25" y="192.2314">alt</text><text fill="#000000" font-family="sans-serif" font-size="11" font-weight="bold" lengthAdjust="spacing" textLength="220.0376" x="85.1709" y="191.0732">[Request for getAllUsersOnlineStatuses()]</text><polygon fill="#181818" points="514.8364,215.7852,524.8364,219.7852,514.8364,223.7852,518.8364,219.7852" style="stroke:#181818;stroke-width:1.0;"/><line style="stroke:#181818;stroke-width:1.0;" x1="288.9268" x2="520.8364" y1="219.7852" y2="219.7852"/><text fill="#000000" font-family="sans-serif" font-size="13" lengthAdjust="spacing" textLength="131.498" x="295.9268" y="214.5225">Fetch All user statuses</text><polygon fill="#181818" points="794.6533,247.0762,804.6533,251.0762,794.6533,255.0762,798.6533,251.0762" style="stroke:#181818;stroke-width:1.0;"/><line style="stroke:#181818;stroke-width:1.0;" x1="526.8364" x2="800.6533" y1="251.0762" y2="251.0762"/><text fill="#000000" font-family="sans-serif" font-size="13" lengthAdjust="spacing" textLength="222.5806" x="533.8364" y="245.8135">get values by keys user:{userId}:online</text><polygon fill="#181818" points="794.6533,278.3672,804.6533,282.3672,794.6533,286.3672,798.6533,282.3672" style="stroke:#181818;stroke-width:1.0;"/><line style="stroke:#181818;stroke-width:1.0;" x1="526.8364" x2="800.6533" y1="282.3672" y2="282.3672"/><text fill="#000000" font-family="sans-serif" font-size="13" lengthAdjust="spacing" textLength="255.8169" x="533.8364" y="277.1045">get values by keys user:{userId}:lastSeenOn</text><polygon fill="#181818" points="299.9268,347.2402,289.9268,351.2402,299.9268,355.2402,295.9268,351.2402" style="stroke:#181818;stroke-width:1.0;"/><line style="stroke:#181818;stroke-width:1.0;" x1="293.9268" x2="525.8364" y1="351.2402" y2="351.2402"/><text fill="#000000" font-family="sans-serif" font-size="13" lengthAdjust="spacing" textLength="213.9097" x="305.9268" y="345.9775">Return Map&lt;Long, OnlineStatusDto&gt;</text><path d="M531,295.3672 L531,391.3672 L729,391.3672 L729,305.3672 L719,295.3672 L531,295.3672 " fill="#FEFFDD" style="stroke:#181818;stroke-width:0.5;"/><path d="M719,295.3672 L719,305.3672 L729,305.3672 L719,295.3672 " fill="#FEFFDD" style="stroke:#181818;stroke-width:0.5;"/><text fill="#000000" font-family="sans-serif" font-size="13" lengthAdjust="spacing" textLength="143.0762" x="537" y="314.3955">record OnlineStatusDto {</text><text fill="#000000" font-family="sans-serif" font-size="13" lengthAdjust="spacing" textLength="68.6626" x="551.4473" y="331.6865">Long userId</text><text fill="#000000" font-family="sans-serif" font-size="13" lengthAdjust="spacing" textLength="101.8989" x="551.4473" y="348.9775">Boolean isOnline;</text><text fill="#000000" font-family="sans-serif" font-size="13" lengthAdjust="spacing" textLength="162.5825" x="551.4473" y="366.2686">LocalDateTime lastSeenOn;</text><text fill="#000000" font-family="sans-serif" font-size="13" lengthAdjust="spacing" textLength="4.3418" x="551.4473" y="383.5596">}</text><polygon fill="#181818" points="62.0171,416.1133,52.0171,420.1133,62.0171,424.1133,58.0171,420.1133" style="stroke:#181818;stroke-width:1.0;"/><line style="stroke:#181818;stroke-width:1.0;" x1="56.0171" x2="287.9268" y1="420.1133" y2="420.1133"/><text fill="#000000" font-family="sans-serif" font-size="13" lengthAdjust="spacing" textLength="213.9097" x="68.0171" y="414.8506">Return Map&lt;Long, OnlineStatusDto&gt;</text><!--SRC=[fPBHIiCm58RlynJ_fOA-mBG3nnWAocIR3n3JOnSMavgS3iROktjIsyqEBuJr8Y79-R__pqcruH0nYy4p-LBLEh8rjjQUCT5cSxutzyvwMbBSMaE3amMLDgcYm8pOhAsly9OeOicQcqG9HQ4KvEkjS3lk7J12ojFZQlMAI5yD9LPAQPUfxGeV4h8YVd0kKrCNesDVNGkvPmbs45BWRIA85asEb3gPY8QL8crl8HBnmbOxySRx3XlQfLOxskVngJoCGgky2E5quYMHd_k_CAVUB8YRwF6Yw_lduAiR_BxzbCDOv3um8TfgpRA8P48ipykmR_iFP0X-GdGxan0SQG_RDVRkM6cqcsgcbVqadFBsvmUPSyRiFdo2uol_9tx-oRu1]--></g></svg>