<svg xmlns="http://www.w3.org/2000/svg" xmlns:xlink="http://www.w3.org/1999/xlink" contentStyleType="text/css" height="738px" preserveAspectRatio="none" style="width:856px;height:738px;background:#FFFFFF;" version="1.1" viewBox="0 0 856 738" width="856px" zoomAndPan="magnify"><defs/><g><ellipse cx="542.0594" cy="20" fill="#222222" rx="10" ry="10" style="stroke:#222222;stroke-width:1.0;"/><rect fill="#F1F1F1" height="35.9609" rx="12.5" ry="12.5" style="stroke:#181818;stroke-width:0.5;" width="72.7109" x="505.704" y="50"/><text fill="#000000" font-family="sans-serif" font-size="12" lengthAdjust="spacing" textLength="52.7109" x="515.704" y="72.9492">send data</text><polygon fill="#F1F1F1" points="514.2345,105.9609,569.8844,105.9609,581.8844,117.9609,569.8844,129.9609,514.2345,129.9609,502.2345,117.9609,514.2345,105.9609" style="stroke:#181818;stroke-width:0.5;"/><text fill="#000000" font-family="sans-serif" font-size="11" lengthAdjust="spacing" textLength="55.6499" x="514.2345" y="122.5156">valid input?</text><text fill="#000000" font-family="sans-serif" font-size="11" lengthAdjust="spacing" textLength="17.1177" x="485.1168" y="115.2002">yes</text><text fill="#000000" font-family="sans-serif" font-size="11" lengthAdjust="spacing" textLength="12.2354" x="581.8844" y="115.2002">no</text><rect fill="#F1F1F1" height="35.9609" rx="12.5" ry="12.5" style="stroke:#181818;stroke-width:0.5;" width="40.6777" x="248.908" y="139.9609"/><text fill="#000000" font-family="sans-serif" font-size="12" lengthAdjust="spacing" textLength="20.6777" x="258.908" y="162.9102">true</text><polygon fill="#F1F1F1" points="178.7627,195.9219,359.731,195.9219,371.731,207.9219,359.731,219.9219,178.7627,219.9219,166.7627,207.9219,178.7627,195.9219" style="stroke:#181818;stroke-width:0.5;"/><text fill="#000000" font-family="sans-serif" font-size="11" lengthAdjust="spacing" textLength="180.9683" x="178.7627" y="212.4766">Does account with same email exist?</text><text fill="#000000" font-family="sans-serif" font-size="11" lengthAdjust="spacing" textLength="17.1177" x="149.645" y="205.1611">yes</text><text fill="#000000" font-family="sans-serif" font-size="11" lengthAdjust="spacing" textLength="12.2354" x="371.731" y="205.1611">no</text><rect fill="#F1F1F1" height="35.9609" rx="12.5" ry="12.5" style="stroke:#181818;stroke-width:0.5;" width="117.3652" x="11" y="229.9219"/><text fill="#000000" font-family="sans-serif" font-size="12" lengthAdjust="spacing" textLength="97.3652" x="21" y="252.8711">server sends error</text><rect fill="#F1F1F1" height="35.9609" rx="12.5" ry="12.5" style="stroke:#181818;stroke-width:0.5;" width="158.75" x="419.436" y="229.9219"/><text fill="#000000" font-family="sans-serif" font-size="12" lengthAdjust="spacing" textLength="138.75" x="429.436" y="252.8711">save data to temp storage</text><rect fill="#F1F1F1" height="35.9609" rx="12.5" ry="12.5" style="stroke:#181818;stroke-width:0.5;" width="351.4883" x="323.0669" y="285.8828"/><text fill="#000000" font-family="sans-serif" font-size="12" lengthAdjust="spacing" textLength="331.4883" x="333.0669" y="308.832">Server respond with message telling client to check their email</text><rect fill="#F1F1F1" height="35.9609" rx="12.5" ry="12.5" style="stroke:#181818;stroke-width:0.5;" width="181.3965" x="408.1128" y="341.8438"/><text fill="#000000" font-family="sans-serif" font-size="12" lengthAdjust="spacing" textLength="161.3965" x="418.1128" y="364.793">User click on a link in an email</text><rect fill="#F1F1F1" height="35.9609" rx="12.5" ry="12.5" style="stroke:#181818;stroke-width:0.5;" width="152.0703" x="422.7759" y="397.8047"/><text fill="#000000" font-family="sans-serif" font-size="12" lengthAdjust="spacing" textLength="132.0703" x="432.7759" y="420.7539">User directed to frontend</text><polygon fill="#F1F1F1" points="381.791,453.7656,615.8311,453.7656,627.8311,465.7656,615.8311,477.7656,381.791,477.7656,369.791,465.7656,381.791,453.7656" style="stroke:#181818;stroke-width:0.5;"/><text fill="#000000" font-family="sans-serif" font-size="11" lengthAdjust="spacing" textLength="234.04" x="381.791" y="470.3203">query parameter with name "token" is provided?</text><text fill="#000000" font-family="sans-serif" font-size="11" lengthAdjust="spacing" textLength="17.1177" x="352.6733" y="463.0049">yes</text><text fill="#000000" font-family="sans-serif" font-size="11" lengthAdjust="spacing" textLength="12.2354" x="627.8311" y="463.0049">no</text><rect fill="#F1F1F1" height="35.9609" rx="12.5" ry="12.5" style="stroke:#181818;stroke-width:0.5;" width="190.7422" x="264.4199" y="487.7656"/><text fill="#000000" font-family="sans-serif" font-size="12" lengthAdjust="spacing" textLength="170.7422" x="274.4199" y="510.7148">Get token from query parameter</text><rect fill="#F1F1F1" height="51.9219" rx="12.5" ry="12.5" style="stroke:#181818;stroke-width:0.5;" width="345.1836" x="187.1992" y="543.7266"/><text fill="#000000" font-family="sans-serif" font-size="12" lengthAdjust="spacing" textLength="157.4063" x="197.1992" y="566.6758">Send POST request to server</text><text fill="#000000" font-family="sans-serif" font-size="12" lengthAdjust="spacing" textLength="321.8496" x="200.5332" y="582.6367">/api/authentication/registration-confirmation?token={TOKEN}</text><polygon fill="#F1F1F1" points="324.938,615.6484,394.644,615.6484,406.644,627.6484,394.644,639.6484,324.938,639.6484,312.938,627.6484,324.938,615.6484" style="stroke:#181818;stroke-width:0.5;"/><text fill="#000000" font-family="sans-serif" font-size="11" lengthAdjust="spacing" textLength="69.7061" x="324.938" y="632.2031">token is valid?</text><text fill="#000000" font-family="sans-serif" font-size="11" lengthAdjust="spacing" textLength="17.1177" x="295.8203" y="624.8877">yes</text><text fill="#000000" font-family="sans-serif" font-size="11" lengthAdjust="spacing" textLength="12.2354" x="406.644" y="624.8877">no</text><rect fill="#F1F1F1" height="35.9609" rx="12.5" ry="12.5" style="stroke:#181818;stroke-width:0.5;" width="242.7793" x="138.3652" y="649.6484"/><text fill="#000000" font-family="sans-serif" font-size="12" lengthAdjust="spacing" textLength="219.4453" x="148.3652" y="672.5977">Send 200 response status with user DTO</text><ellipse cx="259.7549" cy="716.6094" fill="none" rx="11" ry="11" style="stroke:#222222;stroke-width:1.0;"/><ellipse cx="259.7549" cy="716.6094" fill="#222222" rx="6" ry="6" style="stroke:#222222;stroke-width:1.0;"/><rect fill="#F1F1F1" height="35.9609" rx="12.5" ry="12.5" style="stroke:#181818;stroke-width:0.5;" width="117.3652" x="401.1445" y="649.6484"/><text fill="#000000" font-family="sans-serif" font-size="12" lengthAdjust="spacing" textLength="97.3652" x="411.1445" y="672.5977">server sends error</text><rect fill="#F1F1F1" height="35.9609" rx="12.5" ry="12.5" style="stroke:#181818;stroke-width:0.5;" width="153.3828" x="561.1396" y="487.7656"/><text fill="#000000" font-family="sans-serif" font-size="12" lengthAdjust="spacing" textLength="133.3828" x="571.1396" y="510.7148">show message with error</text><rect fill="#F1F1F1" height="35.9609" rx="12.5" ry="12.5" style="stroke:#181818;stroke-width:0.5;" width="120.6992" x="724.5225" y="139.9609"/><text fill="#000000" font-family="sans-serif" font-size="12" lengthAdjust="spacing" textLength="97.3652" x="737.8564" y="162.9102">server sends error</text><line style="stroke:#181818;stroke-width:1.0;" x1="542.0594" x2="542.0594" y1="30" y2="50"/><polygon fill="#181818" points="538.0594,40,542.0594,50,546.0594,40,542.0594,44" style="stroke:#181818;stroke-width:1.0;"/><line style="stroke:#181818;stroke-width:1.0;" x1="498.811" x2="498.811" y1="265.8828" y2="285.8828"/><polygon fill="#181818" points="494.811,275.8828,498.811,285.8828,502.811,275.8828,498.811,279.8828" style="stroke:#181818;stroke-width:1.0;"/><line style="stroke:#181818;stroke-width:1.0;" x1="498.811" x2="498.811" y1="321.8438" y2="341.8438"/><polygon fill="#181818" points="494.811,331.8438,498.811,341.8438,502.811,331.8438,498.811,335.8438" style="stroke:#181818;stroke-width:1.0;"/><line style="stroke:#181818;stroke-width:1.0;" x1="498.811" x2="498.811" y1="377.8047" y2="397.8047"/><polygon fill="#181818" points="494.811,387.8047,498.811,397.8047,502.811,387.8047,498.811,391.8047" style="stroke:#181818;stroke-width:1.0;"/><line style="stroke:#181818;stroke-width:1.0;" x1="359.791" x2="359.791" y1="523.7266" y2="543.7266"/><polygon fill="#181818" points="355.791,533.7266,359.791,543.7266,363.791,533.7266,359.791,537.7266" style="stroke:#181818;stroke-width:1.0;"/><line style="stroke:#181818;stroke-width:1.0;" x1="259.7549" x2="259.7549" y1="685.6094" y2="705.6094"/><polygon fill="#181818" points="255.7549,695.6094,259.7549,705.6094,263.7549,695.6094,259.7549,699.6094" style="stroke:#181818;stroke-width:1.0;"/><line style="stroke:#181818;stroke-width:1.0;" x1="312.938" x2="259.7549" y1="627.6484" y2="627.6484"/><line style="stroke:#181818;stroke-width:1.0;" x1="259.7549" x2="259.7549" y1="627.6484" y2="649.6484"/><polygon fill="#181818" points="255.7549,639.6484,259.7549,649.6484,263.7549,639.6484,259.7549,643.6484" style="stroke:#181818;stroke-width:1.0;"/><line style="stroke:#181818;stroke-width:1.0;" x1="406.644" x2="459.8271" y1="627.6484" y2="627.6484"/><line style="stroke:#181818;stroke-width:1.0;" x1="459.8271" x2="459.8271" y1="627.6484" y2="649.6484"/><polygon fill="#181818" points="455.8271,639.6484,459.8271,649.6484,463.8271,639.6484,459.8271,643.6484" style="stroke:#181818;stroke-width:1.0;"/><line style="stroke:#181818;stroke-width:1.0;" x1="359.791" x2="359.791" y1="595.6484" y2="615.6484"/><polygon fill="#181818" points="355.791,605.6484,359.791,615.6484,363.791,605.6484,359.791,609.6484" style="stroke:#181818;stroke-width:1.0;"/><line style="stroke:#181818;stroke-width:1.0;" x1="369.791" x2="359.791" y1="465.7656" y2="465.7656"/><line style="stroke:#181818;stroke-width:1.0;" x1="359.791" x2="359.791" y1="465.7656" y2="487.7656"/><polygon fill="#181818" points="355.791,477.7656,359.791,487.7656,363.791,477.7656,359.791,481.7656" style="stroke:#181818;stroke-width:1.0;"/><line style="stroke:#181818;stroke-width:1.0;" x1="627.8311" x2="637.8311" y1="465.7656" y2="465.7656"/><line style="stroke:#181818;stroke-width:1.0;" x1="637.8311" x2="637.8311" y1="465.7656" y2="487.7656"/><polygon fill="#181818" points="633.8311,477.7656,637.8311,487.7656,641.8311,477.7656,637.8311,481.7656" style="stroke:#181818;stroke-width:1.0;"/><line style="stroke:#181818;stroke-width:1.0;" x1="498.811" x2="498.811" y1="433.7656" y2="453.7656"/><polygon fill="#181818" points="494.811,443.7656,498.811,453.7656,502.811,443.7656,498.811,447.7656" style="stroke:#181818;stroke-width:1.0;"/><line style="stroke:#181818;stroke-width:1.0;" x1="166.7627" x2="69.6826" y1="207.9219" y2="207.9219"/><line style="stroke:#181818;stroke-width:1.0;" x1="69.6826" x2="69.6826" y1="207.9219" y2="229.9219"/><polygon fill="#181818" points="65.6826,219.9219,69.6826,229.9219,73.6826,219.9219,69.6826,223.9219" style="stroke:#181818;stroke-width:1.0;"/><line style="stroke:#181818;stroke-width:1.0;" x1="371.731" x2="498.811" y1="207.9219" y2="207.9219"/><line style="stroke:#181818;stroke-width:1.0;" x1="498.811" x2="498.811" y1="207.9219" y2="229.9219"/><polygon fill="#181818" points="494.811,219.9219,498.811,229.9219,502.811,219.9219,498.811,223.9219" style="stroke:#181818;stroke-width:1.0;"/><line style="stroke:#181818;stroke-width:1.0;" x1="269.2468" x2="269.2468" y1="175.9219" y2="195.9219"/><polygon fill="#181818" points="265.2468,185.9219,269.2468,195.9219,273.2468,185.9219,269.2468,189.9219" style="stroke:#181818;stroke-width:1.0;"/><line style="stroke:#181818;stroke-width:1.0;" x1="502.2345" x2="269.2468" y1="117.9609" y2="117.9609"/><line style="stroke:#181818;stroke-width:1.0;" x1="269.2468" x2="269.2468" y1="117.9609" y2="139.9609"/><polygon fill="#181818" points="265.2468,129.9609,269.2468,139.9609,273.2468,129.9609,269.2468,133.9609" style="stroke:#181818;stroke-width:1.0;"/><line style="stroke:#181818;stroke-width:1.0;" x1="581.8844" x2="784.8721" y1="117.9609" y2="117.9609"/><line style="stroke:#181818;stroke-width:1.0;" x1="784.8721" x2="784.8721" y1="117.9609" y2="139.9609"/><polygon fill="#181818" points="780.8721,129.9609,784.8721,139.9609,788.8721,129.9609,784.8721,133.9609" style="stroke:#181818;stroke-width:1.0;"/><line style="stroke:#181818;stroke-width:1.0;" x1="542.0594" x2="542.0594" y1="85.9609" y2="105.9609"/><polygon fill="#181818" points="538.0594,95.9609,542.0594,105.9609,546.0594,95.9609,542.0594,99.9609" style="stroke:#181818;stroke-width:1.0;"/><!--SRC=[VP8_Rnin3CLtVGeYapCK3ZBUeSYIeaE1Ee3ThOiWqJx2TzALv3aDWdptKhg3yy_e9a6FJpy-KjIpEkSQmHGXUlMjSxI7rSdt587IEEdTDP30wWdb6hJ3v00QvGbREnJfVKO17qAUai8ZQGVY1mGSFFM0VqcAGocSFQpA30JvX0pbMm5apjpMXuZgGsT7x0LXbNBLD-9FMF50CoWE8uXczeSA0SrsTcEKCLiV5M904HEOkkyf7I3qX0PezQ73S2n4n3EbzLnSVXbKaTbZJk31oeuM0VZqMHQ9CIZ6uhVddDGQgImbaJyJyXECdYq7DN7bIIMKAyr7J5Sbq97pYIB62_6MNxvZOJLniH_WWsMxgBPbR0-RxSvwDudK_fPiVoTO-v7MVYgsIi4hvRHcFDX8k5w-X9psn4EztDNllZxlDZ- -_NnPVgZzp1n6MRVYCl2PvlRcPXc43L3KwoHp05F9xNwtWVPSOKCSbykxUSD_T-JTdjJQ56dlFfiqqkN7yo9KYBSshnwpWJiVtleqS9bZgLugdFi7]--></g></svg>