<svg xmlns="http://www.w3.org/2000/svg" xmlns:xlink="http://www.w3.org/1999/xlink" contentStyleType="text/css" height="468px" preserveAspectRatio="none" style="width:477px;height:468px;background:#FFFFFF;" version="1.1" viewBox="0 0 477 468" width="477px" zoomAndPan="magnify"><defs/><g><ellipse cx="207.3879" cy="20" fill="#222222" rx="10" ry="10" style="stroke:#222222;stroke-width:1.0;"/><path d="M309.76,54.335 L309.76,63.9805 L289.76,67.9805 L309.76,71.9805 L309.76,81.626 A0,0 0 0 0 309.76,81.626 L465.8635,81.626 A0,0 0 0 0 465.8635,81.626 L465.8635,64.335 L455.8635,54.335 L309.76,54.335 A0,0 0 0 0 309.76,54.335 " fill="#FEFFDD" style="stroke:#181818;stroke-width:0.5;"/><path d="M455.8635,54.335 L455.8635,64.335 L465.8635,64.335 L455.8635,54.335 " fill="#FEFFDD" style="stroke:#181818;stroke-width:0.5;"/><text fill="#000000" font-family="sans-serif" font-size="13" lengthAdjust="spacing" textLength="135.1035" x="315.76" y="73.3633">userRepository.findAll()</text><rect fill="#F1F1F1" height="35.9609" rx="12.5" ry="12.5" style="stroke:#181818;stroke-width:0.5;" width="164.7441" x="125.0159" y="50"/><text fill="#000000" font-family="sans-serif" font-size="12" lengthAdjust="spacing" textLength="144.7441" x="135.0159" y="72.9492">Get all users last login data</text><rect fill="#F1F1F1" height="35.9609" rx="12.5" ry="12.5" style="stroke:#181818;stroke-width:0.5;" width="105.377" x="154.6995" y="105.9609"/><text fill="#000000" font-family="sans-serif" font-size="12" lengthAdjust="spacing" textLength="85.377" x="164.6995" y="128.9102">iterate elements</text><polygon fill="#F1F1F1" points="141.6807,205.9219,273.0952,205.9219,285.0952,217.9219,273.0952,229.9219,141.6807,229.9219,129.6807,217.9219,141.6807,205.9219" style="stroke:#181818;stroke-width:0.5;"/><text fill="#000000" font-family="sans-serif" font-size="11" font-weight="bold" lengthAdjust="spacing" textLength="100.2354" x="141.6807" y="222.4766">user.lastLoggedOn</text><text fill="#000000" font-family="sans-serif" font-size="11" lengthAdjust="spacing" textLength="28.123" x="244.9722" y="222.4766">is null</text><text fill="#000000" font-family="sans-serif" font-size="11" lengthAdjust="spacing" textLength="17.1177" x="112.563" y="215.1611">yes</text><rect fill="#FFC0CB" height="51.9219" rx="12.5" ry="12.5" style="stroke:#181818;stroke-width:0.5;" width="163.3613" x="38" y="239.9219"/><text fill="#000000" font-family="sans-serif" font-size="12" lengthAdjust="spacing" textLength="110.0684" x="48" y="262.8711">log warning that field</text><text fill="#000000" font-family="sans-serif" font-size="12" font-weight="bold" lengthAdjust="spacing" textLength="109.3477" x="48" y="278.832">user.lastLoggedOn</text><text fill="#000000" font-family="sans-serif" font-size="12" lengthAdjust="spacing" textLength="30.6797" x="160.6816" y="278.832">is null</text><rect fill="#F1F1F1" height="35.9609" rx="12.5" ry="12.5" style="stroke:#181818;stroke-width:0.5;" width="133.3906" x="228.3999" y="239.9219"/><text fill="#000000" font-family="sans-serif" font-size="12" lengthAdjust="spacing" textLength="113.3906" x="238.3999" y="262.8711">save data to temp list</text><polygon fill="#F1F1F1" points="207.3879,297.8438,219.3879,309.8438,207.3879,321.8438,195.3879,309.8438,207.3879,297.8438" style="stroke:#181818;stroke-width:0.5;"/><polygon fill="#F1F1F1" points="165.5015,161.9219,249.2744,161.9219,261.2744,173.9219,249.2744,185.9219,165.5015,185.9219,153.5015,173.9219,165.5015,161.9219" style="stroke:#181818;stroke-width:0.5;"/><text fill="#000000" font-family="sans-serif" font-size="11" lengthAdjust="spacing" textLength="83.7729" x="165.5015" y="178.4766">has next element</text><rect fill="#F1F1F1" height="51.9219" rx="12.5" ry="12.5" style="stroke:#181818;stroke-width:0.5;" width="233.123" x="90.8264" y="363.8438"/><text fill="#000000" font-family="sans-serif" font-size="12" lengthAdjust="spacing" textLength="70.0371" x="100.8264" y="386.793">Save to redis</text><text fill="#000000" font-family="sans-serif" font-size="12" lengthAdjust="spacing" textLength="59.3672" x="100.8264" y="402.7539">key pattern</text><text fill="#000000" font-family="sans-serif" font-size="12" font-weight="bold" lengthAdjust="spacing" textLength="150.4219" x="163.5276" y="402.7539">'user:{userId}:lastSeenOn'</text><ellipse cx="207.3879" cy="446.7656" fill="none" rx="11" ry="11" style="stroke:#222222;stroke-width:1.0;"/><ellipse cx="207.3879" cy="446.7656" fill="#222222" rx="6" ry="6" style="stroke:#222222;stroke-width:1.0;"/><line style="stroke:#181818;stroke-width:1.0;" x1="207.3879" x2="207.3879" y1="30" y2="50"/><polygon fill="#181818" points="203.3879,40,207.3879,50,211.3879,40,207.3879,44" style="stroke:#181818;stroke-width:1.0;"/><line style="stroke:#181818;stroke-width:1.0;" x1="207.3879" x2="207.3879" y1="85.9609" y2="105.9609"/><polygon fill="#181818" points="203.3879,95.9609,207.3879,105.9609,211.3879,95.9609,207.3879,99.9609" style="stroke:#181818;stroke-width:1.0;"/><line style="stroke:#181818;stroke-width:1.0;" x1="129.6807" x2="119.6807" y1="217.9219" y2="217.9219"/><line style="stroke:#181818;stroke-width:1.0;" x1="119.6807" x2="119.6807" y1="217.9219" y2="239.9219"/><polygon fill="#181818" points="115.6807,229.9219,119.6807,239.9219,123.6807,229.9219,119.6807,233.9219" style="stroke:#181818;stroke-width:1.0;"/><line style="stroke:#181818;stroke-width:1.0;" x1="285.0952" x2="295.0952" y1="217.9219" y2="217.9219"/><line style="stroke:#181818;stroke-width:1.0;" x1="295.0952" x2="295.0952" y1="217.9219" y2="239.9219"/><polygon fill="#181818" points="291.0952,229.9219,295.0952,239.9219,299.0952,229.9219,295.0952,233.9219" style="stroke:#181818;stroke-width:1.0;"/><line style="stroke:#181818;stroke-width:1.0;" x1="119.6807" x2="119.6807" y1="291.8438" y2="309.8438"/><line style="stroke:#181818;stroke-width:1.0;" x1="119.6807" x2="195.3879" y1="309.8438" y2="309.8438"/><polygon fill="#181818" points="185.3879,305.8438,195.3879,309.8438,185.3879,313.8438,189.3879,309.8438" style="stroke:#181818;stroke-width:1.0;"/><line style="stroke:#181818;stroke-width:1.0;" x1="295.0952" x2="295.0952" y1="275.8828" y2="309.8438"/><line style="stroke:#181818;stroke-width:1.0;" x1="295.0952" x2="219.3879" y1="309.8438" y2="309.8438"/><polygon fill="#181818" points="229.3879,305.8438,219.3879,309.8438,229.3879,313.8438,225.3879,309.8438" style="stroke:#181818;stroke-width:1.0;"/><line style="stroke:#181818;stroke-width:1.0;" x1="207.3879" x2="207.3879" y1="185.9219" y2="205.9219"/><polygon fill="#181818" points="203.3879,195.9219,207.3879,205.9219,211.3879,195.9219,207.3879,199.9219" style="stroke:#181818;stroke-width:1.0;"/><line style="stroke:#181818;stroke-width:1.0;" x1="207.3879" x2="207.3879" y1="321.8438" y2="331.8438"/><line style="stroke:#181818;stroke-width:1.0;" x1="207.3879" x2="383.7905" y1="331.8438" y2="331.8438"/><polygon fill="#181818" points="379.7905,261.8828,383.7905,251.8828,387.7905,261.8828,383.7905,257.8828" style="stroke:#181818;stroke-width:1.0;"/><line style="stroke:#181818;stroke-width:1.0;" x1="383.7905" x2="383.7905" y1="173.9219" y2="331.8438"/><line style="stroke:#181818;stroke-width:1.0;" x1="383.7905" x2="261.2744" y1="173.9219" y2="173.9219"/><polygon fill="#181818" points="271.2744,169.9219,261.2744,173.9219,271.2744,177.9219,267.2744,173.9219" style="stroke:#181818;stroke-width:1.0;"/><line style="stroke:#181818;stroke-width:1.0;" x1="153.5015" x2="24" y1="173.9219" y2="173.9219"/><polygon fill="#181818" points="20,247.8828,24,257.8828,28,247.8828,24,251.8828" style="stroke:#181818;stroke-width:1.0;"/><line style="stroke:#181818;stroke-width:1.0;" x1="24" x2="24" y1="173.9219" y2="343.8438"/><line style="stroke:#181818;stroke-width:1.0;" x1="24" x2="207.3879" y1="343.8438" y2="343.8438"/><line style="stroke:#181818;stroke-width:1.0;" x1="207.3879" x2="207.3879" y1="343.8438" y2="363.8438"/><polygon fill="#181818" points="203.3879,353.8438,207.3879,363.8438,211.3879,353.8438,207.3879,357.8438" style="stroke:#181818;stroke-width:1.0;"/><line style="stroke:#181818;stroke-width:1.0;" x1="207.3879" x2="207.3879" y1="141.9219" y2="161.9219"/><polygon fill="#181818" points="203.3879,151.9219,207.3879,161.9219,211.3879,151.9219,207.3879,155.9219" style="stroke:#181818;stroke-width:1.0;"/><line style="stroke:#181818;stroke-width:1.0;" x1="207.3879" x2="207.3879" y1="415.7656" y2="435.7656"/><polygon fill="#181818" points="203.3879,425.7656,207.3879,435.7656,211.3879,425.7656,207.3879,429.7656" style="stroke:#181818;stroke-width:1.0;"/><!--SRC=[VO-nQWCn38PtFuMWG-uyv05yKwTIA0IIDOl1kZiHHJuifUbH-kwr3Lsx684-_Ry_jLZCXJSqYCpmK2mA7DM0yq82ALgSd6H3ABIivXfnnYqhMIxxSIP9hyp3w50IDCu5CYon7Y3Z7SLqSi-L665OeuBWb_rjHWT0CmpUjzHZg_t8ouBf9Du3LVZ1FBPXs557i1MbdW2yR2ItK7y8prY4PAchQ30JSeAh_9itzGHanJu4ZP_ODS4o6DutO5BhL5MYsJMpBk32fR4LAvX8htB37RPeLLV0-qCh3T_jVKy_eRLV4EKa1-ydfvQtNm00]--></g></svg>