<svg xmlns="http://www.w3.org/2000/svg" xmlns:xlink="http://www.w3.org/1999/xlink" contentStyleType="text/css" height="528px" preserveAspectRatio="none" style="width:869px;height:528px;background:#FFFFFF;" version="1.1" viewBox="0 0 869 528" width="869px" zoomAndPan="magnify"><defs/><g><rect fill="none" height="250.9102" style="stroke:#000000;stroke-width:1.5;" width="842.3662" x="10" y="177.2031"/><line style="stroke:#181818;stroke-width:0.5;stroke-dasharray:5.0,5.0;" x1="51" x2="51" y1="83.6211" y2="445.1133"/><line style="stroke:#181818;stroke-width:0.5;stroke-dasharray:5.0,5.0;" x1="299.502" x2="299.502" y1="83.6211" y2="445.1133"/><line style="stroke:#181818;stroke-width:0.5;stroke-dasharray:5.0,5.0;" x1="537.0771" x2="537.0771" y1="83.6211" y2="445.1133"/><line style="stroke:#181818;stroke-width:0.5;stroke-dasharray:5.0,5.0;" x1="816.5732" x2="816.5732" y1="83.6211" y2="445.1133"/><text fill="#000000" font-family="sans-serif" font-size="14" lengthAdjust="spacing" textLength="56.0342" x="20" y="80.1074">Frontend</text><ellipse cx="51.0171" cy="13.5" fill="#E2E2F0" rx="8" ry="8" style="stroke:#181818;stroke-width:0.5;"/><path d="M51.0171,21.5 L51.0171,48.5 M38.0171,29.5 L64.0171,29.5 M51.0171,48.5 L38.0171,63.5 M51.0171,48.5 L64.0171,63.5 " fill="none" style="stroke:#181818;stroke-width:0.5;"/><text fill="#000000" font-family="sans-serif" font-size="14" lengthAdjust="spacing" textLength="56.0342" x="20" y="459.2207">Frontend</text><ellipse cx="51.0171" cy="471.2344" fill="#E2E2F0" rx="8" ry="8" style="stroke:#181818;stroke-width:0.5;"/><path d="M51.0171,479.2344 L51.0171,506.2344 M38.0171,487.2344 L64.0171,487.2344 M51.0171,506.2344 L38.0171,521.2344 M51.0171,506.2344 L64.0171,521.2344 " fill="none" style="stroke:#181818;stroke-width:0.5;"/><rect fill="#E2E2F0" height="32.6211" rx="2.5" ry="2.5" style="stroke:#181818;stroke-width:0.5;" width="68.4824" x="265.502" y="50"/><text fill="#000000" font-family="sans-serif" font-size="14" lengthAdjust="spacing" textLength="54.4824" x="272.502" y="72.1074">Backend</text><rect fill="#E2E2F0" height="32.6211" rx="2.5" ry="2.5" style="stroke:#181818;stroke-width:0.5;" width="68.4824" x="265.502" y="444.1133"/><text fill="#000000" font-family="sans-serif" font-size="14" lengthAdjust="spacing" textLength="54.4824" x="272.502" y="466.2207">Backend</text><rect fill="#E2E2F0" height="32.6211" rx="2.5" ry="2.5" style="stroke:#181818;stroke-width:0.5;" width="101.1514" x="487.0771" y="50"/><text fill="#000000" font-family="sans-serif" font-size="14" lengthAdjust="spacing" textLength="87.1514" x="494.0771" y="72.1074">OnlineService</text><rect fill="#E2E2F0" height="32.6211" rx="2.5" ry="2.5" style="stroke:#181818;stroke-width:0.5;" width="101.1514" x="487.0771" y="444.1133"/><text fill="#000000" font-family="sans-serif" font-size="14" lengthAdjust="spacing" textLength="87.1514" x="494.0771" y="466.2207">OnlineService</text><rect fill="#E2E2F0" height="32.6211" rx="2.5" ry="2.5" style="stroke:#181818;stroke-width:0.5;" width="49.793" x="792.5732" y="50"/><text fill="#000000" font-family="sans-serif" font-size="14" lengthAdjust="spacing" textLength="35.793" x="799.5732" y="72.1074">Redis</text><rect fill="#E2E2F0" height="32.6211" rx="2.5" ry="2.5" style="stroke:#181818;stroke-width:0.5;" width="49.793" x="792.5732" y="444.1133"/><text fill="#000000" font-family="sans-serif" font-size="14" lengthAdjust="spacing" textLength="35.793" x="799.5732" y="466.2207">Redis</text><rect fill="#EEEEEE" height="3" style="stroke:#EEEEEE;stroke-width:1.0;" width="862.3662" x="0" y="115.2666"/><line style="stroke:#000000;stroke-width:1.0;" x1="0" x2="862.3662" y1="115.2666" y2="115.2666"/><line style="stroke:#000000;stroke-width:1.0;" x1="0" x2="862.3662" y1="118.2666" y2="118.2666"/><rect fill="#EEEEEE" height="25.291" style="stroke:#000000;stroke-width:2.0;" width="162.0972" x="350.1345" y="103.6211"/><text fill="#000000" font-family="sans-serif" font-size="13" font-weight="bold" lengthAdjust="spacing" textLength="144.4854" x="356.1345" y="121.6494">Fetching User Statuses</text><polygon fill="#181818" points="287.7432,158.2031,297.7432,162.2031,287.7432,166.2031,291.7432,162.2031" style="stroke:#181818;stroke-width:1.0;"/><line style="stroke:#181818;stroke-width:1.0;" x1="51.0171" x2="293.7432" y1="162.2031" y2="162.2031"/><text fill="#000000" font-family="sans-serif" font-size="13" lengthAdjust="spacing" textLength="224.7261" x="58.0171" y="156.9404">send HTTP request api/v2/users/online</text><path d="M10,177.2031 L70.1709,177.2031 L70.1709,186.4941 L60.1709,196.4941 L10,196.4941 L10,177.2031 " fill="#EEEEEE" style="stroke:#000000;stroke-width:1.5;"/><rect fill="none" height="250.9102" style="stroke:#000000;stroke-width:1.5;" width="842.3662" x="10" y="177.2031"/><text fill="#000000" font-family="sans-serif" font-size="13" font-weight="bold" lengthAdjust="spacing" textLength="15.1709" x="25" y="192.2314">alt</text><text fill="#000000" font-family="sans-serif" font-size="11" font-weight="bold" lengthAdjust="spacing" textLength="220.0376" x="85.1709" y="191.0732">[Request for getAllUsersOnlineStatuses()]</text><polygon fill="#181818" points="525.6528,215.7852,535.6528,219.7852,525.6528,223.7852,529.6528,219.7852" style="stroke:#181818;stroke-width:1.0;"/><line style="stroke:#181818;stroke-width:1.0;" x1="299.7432" x2="531.6528" y1="219.7852" y2="219.7852"/><text fill="#000000" font-family="sans-serif" font-size="13" lengthAdjust="spacing" textLength="131.498" x="306.7432" y="214.5225">Fetch All user statuses</text><polygon fill="#181818" points="805.4697,247.0762,815.4697,251.0762,805.4697,255.0762,809.4697,251.0762" style="stroke:#181818;stroke-width:1.0;"/><line style="stroke:#181818;stroke-width:1.0;" x1="537.6528" x2="811.4697" y1="251.0762" y2="251.0762"/><text fill="#000000" font-family="sans-serif" font-size="13" lengthAdjust="spacing" textLength="222.5806" x="544.6528" y="245.8135">get values by keys user:{userId}:online</text><polygon fill="#181818" points="805.4697,278.3672,815.4697,282.3672,805.4697,286.3672,809.4697,282.3672" style="stroke:#181818;stroke-width:1.0;"/><line style="stroke:#181818;stroke-width:1.0;" x1="537.6528" x2="811.4697" y1="282.3672" y2="282.3672"/><text fill="#000000" font-family="sans-serif" font-size="13" lengthAdjust="spacing" textLength="255.8169" x="544.6528" y="277.1045">get values by keys user:{userId}:lastSeenOn</text><polygon fill="#181818" points="310.7432,347.2402,300.7432,351.2402,310.7432,355.2402,306.7432,351.2402" style="stroke:#181818;stroke-width:1.0;"/><line style="stroke:#181818;stroke-width:1.0;" x1="304.7432" x2="536.6528" y1="351.2402" y2="351.2402"/><text fill="#000000" font-family="sans-serif" font-size="13" lengthAdjust="spacing" textLength="213.9097" x="316.7432" y="345.9775">Return Map&lt;Long, OnlineStatusDto&gt;</text><path d="M542,295.3672 L542,391.3672 L740,391.3672 L740,305.3672 L730,295.3672 L542,295.3672 " fill="#FEFFDD" style="stroke:#181818;stroke-width:0.5;"/><path d="M730,295.3672 L730,305.3672 L740,305.3672 L730,295.3672 " fill="#FEFFDD" style="stroke:#181818;stroke-width:0.5;"/><text fill="#000000" font-family="sans-serif" font-size="13" lengthAdjust="spacing" textLength="143.0762" x="548" y="314.3955">record OnlineStatusDto {</text><text fill="#000000" font-family="sans-serif" font-size="13" lengthAdjust="spacing" textLength="68.6626" x="562.4473" y="331.6865">Long userId</text><text fill="#000000" font-family="sans-serif" font-size="13" lengthAdjust="spacing" textLength="101.8989" x="562.4473" y="348.9775">Boolean isOnline;</text><text fill="#000000" font-family="sans-serif" font-size="13" lengthAdjust="spacing" textLength="162.5825" x="562.4473" y="366.2686">LocalDateTime lastSeenOn;</text><text fill="#000000" font-family="sans-serif" font-size="13" lengthAdjust="spacing" textLength="4.3418" x="562.4473" y="383.5596">}</text><polygon fill="#181818" points="62.0171,416.1133,52.0171,420.1133,62.0171,424.1133,58.0171,420.1133" style="stroke:#181818;stroke-width:1.0;"/><line style="stroke:#181818;stroke-width:1.0;" x1="56.0171" x2="298.7432" y1="420.1133" y2="420.1133"/><text fill="#000000" font-family="sans-serif" font-size="13" lengthAdjust="spacing" textLength="213.9097" x="68.0171" y="414.8506">Return Map&lt;Long, OnlineStatusDto&gt;</text><!--SRC=[fPB1IWCn48RlUOh_gA0KF5QtO2b5GQcqzG5YTjo6ncHDfeLI-kvEjhkjAnu4SqZ8PFxv_cIY3OU8QGoUoPUgrf6jiRNsZB4swv-ncNVMquBYrXhgdSofj4aL1QR4PcLzXTT44GlMl4cKK1HAGKQ7mlMe8s28b9U7vV85aJutb1YwjeFjpK2qCGr2WrLAQPT9nuntCLuHtpkNIQcrrl8kBeNMrHTKpxW06vSGBJ81gPM9g9yfqkPc8X4Mjje96syxh6cN6krmd-V7yZ1iNVwdXDE95qH-vdyhStwlEV4cUZph-kuf-EeAtsy_uJ0IkGzCYBPQiMmYcH3BdsdODpq1SX4SJRIHSGYEj8Tj7_Rsb6cqcsYcfVqWdFrsvmTPiyTCxxVWrFc_sCyVxmi0]--></g></svg>