<svg xmlns="http://www.w3.org/2000/svg" xmlns:xlink="http://www.w3.org/1999/xlink" contentStyleType="text/css" height="1146px" preserveAspectRatio="none" style="width:1371px;height:1146px;background:#FFFFFF;" version="1.1" viewBox="0 0 1371 1146" width="1371px" zoomAndPan="magnify"><defs/><g><!--class User--><g id="elem_User"><rect codeLine="32" fill="#F1F1F1" height="234.2109" id="User" rx="2.5" ry="2.5" style="stroke:#181818;stroke-width:0.5;" width="207.3027" x="188" y="428"/><ellipse cx="272.6221" cy="444" fill="#ADD1B2" rx="11" ry="11" style="stroke:#181818;stroke-width:1.0;"/><path d="M275.3877,439.875 Q275.5439,439.6563 275.7314,439.5469 Q275.9189,439.4375 276.1377,439.4375 Q276.5127,439.4375 276.7471,439.7031 Q276.9814,439.9531 276.9814,440.5625 L276.9814,442.0156 Q276.9814,442.625 276.7471,442.8906 Q276.5127,443.1563 276.1377,443.1563 Q275.7939,443.1563 275.5908,442.9531 Q275.3877,442.7656 275.2783,442.25 Q275.2314,441.8906 275.0439,441.7031 Q274.7158,441.3281 274.1064,441.1094 Q273.4971,440.8906 272.8721,440.8906 Q272.1064,440.8906 271.4658,441.2188 Q270.8408,441.5469 270.3408,442.2969 Q269.8564,443.0469 269.8564,444.0781 L269.8564,445.1719 Q269.8564,446.4063 270.7471,447.2344 Q271.6377,448.0469 273.2314,448.0469 Q274.1689,448.0469 274.8252,447.7969 Q275.2158,447.6406 275.6377,447.2031 Q275.9033,446.9375 276.0439,446.8594 Q276.2002,446.7813 276.4033,446.7813 Q276.7314,446.7813 276.9814,447.0469 Q277.2471,447.2969 277.2471,447.6406 Q277.2471,447.9844 276.9033,448.3906 Q276.4033,448.9688 275.6064,449.2969 Q274.5283,449.75 273.2314,449.75 Q271.7158,449.75 270.5127,449.125 Q269.5283,448.625 268.8408,447.5625 Q268.1533,446.4844 268.1533,445.2031 L268.1533,444.0469 Q268.1533,442.7188 268.7627,441.5781 Q269.3877,440.4219 270.4814,439.8125 Q271.5752,439.1875 272.8096,439.1875 Q273.5439,439.1875 274.1846,439.3594 Q274.8408,439.5156 275.3877,439.875 Z " fill="#000000"/><text fill="#000000" font-family="sans-serif" font-size="14" lengthAdjust="spacing" textLength="29.5586" x="293.1221" y="449.7969">User</text><line style="stroke:#181818;stroke-width:0.5;" x1="189" x2="394.3027" y1="460" y2="460"/><rect fill="none" height="6" style="stroke:#C82930;stroke-width:1.0;" width="6" x="196" y="471.8105"/><text fill="#000000" font-family="sans-serif" font-size="14" lengthAdjust="spacing" textLength="49.8203" x="208" y="479.1074">id: Long</text><rect fill="none" height="6" style="stroke:#C82930;stroke-width:1.0;" width="6" x="196" y="490.4316"/><text fill="#000000" font-family="sans-serif" font-size="14" lengthAdjust="spacing" textLength="181.3027" x="208" y="497.7285">countries: List&lt;UserCountry&gt;</text><rect fill="none" height="6" style="stroke:#C82930;stroke-width:1.0;" width="6" x="196" y="509.0527"/><text fill="#000000" font-family="sans-serif" font-size="14" lengthAdjust="spacing" textLength="108.9307" x="208" y="516.3496">userName: String</text><rect fill="none" height="6" style="stroke:#C82930;stroke-width:1.0;" width="6" x="196" y="527.6738"/><text fill="#000000" font-family="sans-serif" font-size="14" lengthAdjust="spacing" textLength="104.2686" x="208" y="534.9707">password: String</text><rect fill="none" height="6" style="stroke:#C82930;stroke-width:1.0;" width="6" x="196" y="546.2949"/><text fill="#000000" font-family="sans-serif" font-size="14" lengthAdjust="spacing" textLength="106.5928" x="208" y="553.5918">userEmail: String</text><rect fill="none" height="6" style="stroke:#C82930;stroke-width:1.0;" width="6" x="196" y="564.916"/><text fill="#000000" font-family="sans-serif" font-size="14" lengthAdjust="spacing" textLength="59.917" x="208" y="572.2129">role: Role</text><rect fill="none" height="6" style="stroke:#C82930;stroke-width:1.0;" width="6" x="196" y="583.5371"/><text fill="#000000" font-family="sans-serif" font-size="14" lengthAdjust="spacing" textLength="126.0752" x="208" y="590.834">tokens: List&lt;Token&gt;</text><rect fill="none" height="6" style="stroke:#C82930;stroke-width:1.0;" width="6" x="196" y="602.1582"/><text fill="#000000" font-family="sans-serif" font-size="14" lengthAdjust="spacing" textLength="87.1514" x="208" y="609.4551">avatar: Avatar</text><rect fill="none" height="6" style="stroke:#C82930;stroke-width:1.0;" width="6" x="196" y="620.7793"/><text fill="#000000" font-family="sans-serif" font-size="14" lengthAdjust="spacing" textLength="79.3857" x="208" y="628.0762">about: String</text><rect fill="none" height="6" style="stroke:#C82930;stroke-width:1.0;" width="6" x="196" y="639.4004"/><text fill="#000000" font-family="sans-serif" font-size="14" lengthAdjust="spacing" textLength="131.5303" x="208" y="646.6973">lastLoggedOn: String</text><line style="stroke:#181818;stroke-width:0.5;" x1="189" x2="394.3027" y1="654.2109" y2="654.2109"/></g><!--class UserCountry--><g id="elem_UserCountry"><rect codeLine="51" fill="#F1F1F1" height="122.4844" id="UserCountry" rx="2.5" ry="2.5" style="stroke:#181818;stroke-width:0.5;" width="164.5098" x="209" y="769"/><ellipse cx="248.2688" cy="785" fill="#ADD1B2" rx="11" ry="11" style="stroke:#181818;stroke-width:1.0;"/><path d="M251.0344,780.875 Q251.1907,780.6563 251.3782,780.5469 Q251.5657,780.4375 251.7844,780.4375 Q252.1594,780.4375 252.3938,780.7031 Q252.6282,780.9531 252.6282,781.5625 L252.6282,783.0156 Q252.6282,783.625 252.3938,783.8906 Q252.1594,784.1563 251.7844,784.1563 Q251.4407,784.1563 251.2375,783.9531 Q251.0344,783.7656 250.925,783.25 Q250.8782,782.8906 250.6907,782.7031 Q250.3625,782.3281 249.7532,782.1094 Q249.1438,781.8906 248.5188,781.8906 Q247.7532,781.8906 247.1125,782.2188 Q246.4875,782.5469 245.9875,783.2969 Q245.5032,784.0469 245.5032,785.0781 L245.5032,786.1719 Q245.5032,787.4063 246.3938,788.2344 Q247.2844,789.0469 248.8782,789.0469 Q249.8157,789.0469 250.4719,788.7969 Q250.8625,788.6406 251.2844,788.2031 Q251.55,787.9375 251.6907,787.8594 Q251.8469,787.7813 252.05,787.7813 Q252.3782,787.7813 252.6282,788.0469 Q252.8938,788.2969 252.8938,788.6406 Q252.8938,788.9844 252.55,789.3906 Q252.05,789.9688 251.2532,790.2969 Q250.175,790.75 248.8782,790.75 Q247.3625,790.75 246.1594,790.125 Q245.175,789.625 244.4875,788.5625 Q243.8,787.4844 243.8,786.2031 L243.8,785.0469 Q243.8,783.7188 244.4094,782.5781 Q245.0344,781.4219 246.1282,780.8125 Q247.2219,780.1875 248.4563,780.1875 Q249.1907,780.1875 249.8313,780.3594 Q250.4875,780.5156 251.0344,780.875 Z " fill="#000000"/><text fill="#000000" font-family="sans-serif" font-size="14" lengthAdjust="spacing" textLength="78.5791" x="267.6619" y="790.7969">UserCountry</text><line style="stroke:#181818;stroke-width:0.5;" x1="210" x2="372.5098" y1="801" y2="801"/><rect fill="none" height="6" style="stroke:#C82930;stroke-width:1.0;" width="6" x="217" y="812.8105"/><text fill="#000000" font-family="sans-serif" font-size="14" lengthAdjust="spacing" textLength="49.8203" x="229" y="820.1074">id: Long</text><rect fill="none" height="6" style="stroke:#C82930;stroke-width:1.0;" width="6" x="217" y="831.4316"/><text fill="#000000" font-family="sans-serif" font-size="14" lengthAdjust="spacing" textLength="64.5723" x="229" y="838.7285">user: User</text><rect fill="none" height="6" style="stroke:#C82930;stroke-width:1.0;" width="6" x="217" y="850.0527"/><text fill="#000000" font-family="sans-serif" font-size="14" lengthAdjust="spacing" textLength="102.71" x="229" y="857.3496">country: Country</text><rect fill="none" height="6" style="stroke:#C82930;stroke-width:1.0;" width="6" x="217" y="868.6738"/><text fill="#000000" font-family="sans-serif" font-size="14" lengthAdjust="spacing" textLength="138.5098" x="229" y="875.9707">chats: List&lt;UserChat&gt;</text><line style="stroke:#181818;stroke-width:0.5;" x1="210" x2="372.5098" y1="883.4844" y2="883.4844"/></g><!--class UserChat--><g id="elem_UserChat"><rect codeLine="58" fill="#F1F1F1" height="141.1055" id="UserChat" rx="2.5" ry="2.5" style="stroke:#181818;stroke-width:0.5;" width="188.6611" x="197" y="998"/><ellipse cx="257.5151" cy="1014" fill="#ADD1B2" rx="11" ry="11" style="stroke:#181818;stroke-width:1.0;"/><path d="M260.2808,1009.875 Q260.437,1009.6563 260.6245,1009.5469 Q260.812,1009.4375 261.0308,1009.4375 Q261.4058,1009.4375 261.6401,1009.7031 Q261.8745,1009.9531 261.8745,1010.5625 L261.8745,1012.0156 Q261.8745,1012.625 261.6401,1012.8906 Q261.4058,1013.1563 261.0308,1013.1563 Q260.687,1013.1563 260.4839,1012.9531 Q260.2808,1012.7656 260.1714,1012.25 Q260.1245,1011.8906 259.937,1011.7031 Q259.6089,1011.3281 258.9995,1011.1094 Q258.3901,1010.8906 257.7651,1010.8906 Q256.9995,1010.8906 256.3589,1011.2188 Q255.7339,1011.5469 255.2339,1012.2969 Q254.7495,1013.0469 254.7495,1014.0781 L254.7495,1015.1719 Q254.7495,1016.4063 255.6401,1017.2344 Q256.5308,1018.0469 258.1245,1018.0469 Q259.062,1018.0469 259.7183,1017.7969 Q260.1089,1017.6406 260.5308,1017.2031 Q260.7964,1016.9375 260.937,1016.8594 Q261.0933,1016.7813 261.2964,1016.7813 Q261.6245,1016.7813 261.8745,1017.0469 Q262.1401,1017.2969 262.1401,1017.6406 Q262.1401,1017.9844 261.7964,1018.3906 Q261.2964,1018.9688 260.4995,1019.2969 Q259.4214,1019.75 258.1245,1019.75 Q256.6089,1019.75 255.4058,1019.125 Q254.4214,1018.625 253.7339,1017.5625 Q253.0464,1016.4844 253.0464,1015.2031 L253.0464,1014.0469 Q253.0464,1012.7188 253.6558,1011.5781 Q254.2808,1010.4219 255.3745,1009.8125 Q256.4683,1009.1875 257.7026,1009.1875 Q258.437,1009.1875 259.0776,1009.3594 Q259.7339,1009.5156 260.2808,1009.875 Z " fill="#000000"/><text fill="#000000" font-family="sans-serif" font-size="14" lengthAdjust="spacing" textLength="59.1309" x="278.0151" y="1019.7969">UserChat</text><line style="stroke:#181818;stroke-width:0.5;" x1="198" x2="384.6611" y1="1030" y2="1030"/><rect fill="none" height="6" style="stroke:#C82930;stroke-width:1.0;" width="6" x="205" y="1041.8105"/><text fill="#000000" font-family="sans-serif" font-size="14" lengthAdjust="spacing" textLength="49.8203" x="217" y="1049.1074">id: Long</text><rect fill="none" height="6" style="stroke:#C82930;stroke-width:1.0;" width="6" x="205" y="1060.4316"/><text fill="#000000" font-family="sans-serif" font-size="14" lengthAdjust="spacing" textLength="64.5723" x="217" y="1067.7285">user: User</text><rect fill="none" height="6" style="stroke:#C82930;stroke-width:1.0;" width="6" x="205" y="1079.0527"/><text fill="#000000" font-family="sans-serif" font-size="14" lengthAdjust="spacing" textLength="63.8135" x="217" y="1086.3496">chat: Chat</text><rect fill="none" height="6" style="stroke:#C82930;stroke-width:1.0;" width="6" x="205" y="1097.6738"/><text fill="#000000" font-family="sans-serif" font-size="14" lengthAdjust="spacing" textLength="162.6133" x="217" y="1104.9707">userCountry: UserCountry</text><rect fill="none" height="6" style="stroke:#C82930;stroke-width:1.0;" width="6" x="205" y="1116.2949"/><text fill="#000000" font-family="sans-serif" font-size="14" lengthAdjust="spacing" textLength="162.6611" x="217" y="1123.5918">lastReadMessageId: Long</text><line style="stroke:#181818;stroke-width:0.5;" x1="198" x2="384.6611" y1="1131.1055" y2="1131.1055"/></g><!--class Country--><g id="elem_Country"><rect codeLine="66" fill="#F1F1F1" height="103.8633" id="Country" rx="2.5" ry="2.5" style="stroke:#181818;stroke-width:0.5;" width="134.9512" x="409" y="7"/><ellipse cx="448.2688" cy="23" fill="#ADD1B2" rx="11" ry="11" style="stroke:#181818;stroke-width:1.0;"/><path d="M451.0344,18.875 Q451.1907,18.6563 451.3782,18.5469 Q451.5657,18.4375 451.7844,18.4375 Q452.1594,18.4375 452.3938,18.7031 Q452.6282,18.9531 452.6282,19.5625 L452.6282,21.0156 Q452.6282,21.625 452.3938,21.8906 Q452.1594,22.1563 451.7844,22.1563 Q451.4407,22.1563 451.2375,21.9531 Q451.0344,21.7656 450.925,21.25 Q450.8782,20.8906 450.6907,20.7031 Q450.3625,20.3281 449.7532,20.1094 Q449.1438,19.8906 448.5188,19.8906 Q447.7532,19.8906 447.1125,20.2188 Q446.4875,20.5469 445.9875,21.2969 Q445.5032,22.0469 445.5032,23.0781 L445.5032,24.1719 Q445.5032,25.4063 446.3938,26.2344 Q447.2844,27.0469 448.8782,27.0469 Q449.8157,27.0469 450.4719,26.7969 Q450.8625,26.6406 451.2844,26.2031 Q451.55,25.9375 451.6907,25.8594 Q451.8469,25.7813 452.05,25.7813 Q452.3782,25.7813 452.6282,26.0469 Q452.8938,26.2969 452.8938,26.6406 Q452.8938,26.9844 452.55,27.3906 Q452.05,27.9688 451.2532,28.2969 Q450.175,28.75 448.8782,28.75 Q447.3625,28.75 446.1594,28.125 Q445.175,27.625 444.4875,26.5625 Q443.8,25.4844 443.8,24.2031 L443.8,23.0469 Q443.8,21.7188 444.4094,20.5781 Q445.0344,19.4219 446.1282,18.8125 Q447.2219,18.1875 448.4563,18.1875 Q449.1907,18.1875 449.8313,18.3594 Q450.4875,18.5156 451.0344,18.875 Z " fill="#000000"/><text fill="#000000" font-family="sans-serif" font-size="14" lengthAdjust="spacing" textLength="49.0205" x="467.6619" y="28.7969">Country</text><line style="stroke:#181818;stroke-width:0.5;" x1="410" x2="542.9512" y1="39" y2="39"/><rect fill="none" height="6" style="stroke:#C82930;stroke-width:1.0;" width="6" x="417" y="50.8105"/><text fill="#000000" font-family="sans-serif" font-size="14" lengthAdjust="spacing" textLength="97.2617" x="429" y="58.1074">name: String ID</text><rect fill="none" height="6" style="stroke:#C82930;stroke-width:1.0;" width="6" x="417" y="69.4316"/><text fill="#000000" font-family="sans-serif" font-size="14" lengthAdjust="spacing" textLength="100.3926" x="429" y="76.7285">flagCode: String</text><rect fill="none" height="6" style="stroke:#C82930;stroke-width:1.0;" width="6" x="417" y="88.0527"/><text fill="#000000" font-family="sans-serif" font-size="14" lengthAdjust="spacing" textLength="108.9512" x="429" y="95.3496">chats: List&lt;Chat&gt;</text><line style="stroke:#181818;stroke-width:0.5;" x1="410" x2="542.9512" y1="102.8633" y2="102.8633"/></g><!--class Chat--><g id="elem_Chat"><rect codeLine="72" fill="#F1F1F1" height="196.9688" id="Chat" rx="2.5" ry="2.5" style="stroke:#181818;stroke-width:0.5;" width="207.3096" x="373" y="171"/><ellipse cx="457.6187" cy="187" fill="#ADD1B2" rx="11" ry="11" style="stroke:#181818;stroke-width:1.0;"/><path d="M460.3843,182.875 Q460.5405,182.6563 460.728,182.5469 Q460.9155,182.4375 461.1343,182.4375 Q461.5093,182.4375 461.7437,182.7031 Q461.978,182.9531 461.978,183.5625 L461.978,185.0156 Q461.978,185.625 461.7437,185.8906 Q461.5093,186.1563 461.1343,186.1563 Q460.7905,186.1563 460.5874,185.9531 Q460.3843,185.7656 460.2749,185.25 Q460.228,184.8906 460.0405,184.7031 Q459.7124,184.3281 459.103,184.1094 Q458.4937,183.8906 457.8687,183.8906 Q457.103,183.8906 456.4624,184.2188 Q455.8374,184.5469 455.3374,185.2969 Q454.853,186.0469 454.853,187.0781 L454.853,188.1719 Q454.853,189.4063 455.7437,190.2344 Q456.6343,191.0469 458.228,191.0469 Q459.1655,191.0469 459.8218,190.7969 Q460.2124,190.6406 460.6343,190.2031 Q460.8999,189.9375 461.0405,189.8594 Q461.1968,189.7813 461.3999,189.7813 Q461.728,189.7813 461.978,190.0469 Q462.2437,190.2969 462.2437,190.6406 Q462.2437,190.9844 461.8999,191.3906 Q461.3999,191.9688 460.603,192.2969 Q459.5249,192.75 458.228,192.75 Q456.7124,192.75 455.5093,192.125 Q454.5249,191.625 453.8374,190.5625 Q453.1499,189.4844 453.1499,188.2031 L453.1499,187.0469 Q453.1499,185.7188 453.7593,184.5781 Q454.3843,183.4219 455.478,182.8125 Q456.5718,182.1875 457.8062,182.1875 Q458.5405,182.1875 459.1812,182.3594 Q459.8374,182.5156 460.3843,182.875 Z " fill="#000000"/><text fill="#000000" font-family="sans-serif" font-size="14" lengthAdjust="spacing" textLength="29.5723" x="478.1187" y="192.7969">Chat</text><line style="stroke:#181818;stroke-width:0.5;" x1="374" x2="579.3096" y1="203" y2="203"/><rect fill="none" height="6" style="stroke:#C82930;stroke-width:1.0;" width="6" x="381" y="214.8105"/><text fill="#000000" font-family="sans-serif" font-size="14" lengthAdjust="spacing" textLength="49.8203" x="393" y="222.1074">id: Long</text><rect fill="none" height="6" style="stroke:#C82930;stroke-width:1.0;" width="6" x="381" y="233.4316"/><text fill="#000000" font-family="sans-serif" font-size="14" lengthAdjust="spacing" textLength="79.3721" x="393" y="240.7285">name: String</text><rect fill="none" height="6" style="stroke:#C82930;stroke-width:1.0;" width="6" x="381" y="252.0527"/><text fill="#000000" font-family="sans-serif" font-size="14" lengthAdjust="spacing" textLength="112.0547" x="393" y="259.3496">description: String</text><rect fill="none" height="6" style="stroke:#C82930;stroke-width:1.0;" width="6" x="381" y="270.6738"/><text fill="#000000" font-family="sans-serif" font-size="14" lengthAdjust="spacing" textLength="102.71" x="393" y="277.9707">country: Country</text><rect fill="none" height="6" style="stroke:#C82930;stroke-width:1.0;" width="6" x="381" y="289.2949"/><text fill="#000000" font-family="sans-serif" font-size="14" lengthAdjust="spacing" textLength="126.0615" x="393" y="296.5918">chatType: ChatType</text><rect fill="none" height="6" style="stroke:#C82930;stroke-width:1.0;" width="6" x="381" y="307.916"/><text fill="#000000" font-family="sans-serif" font-size="14" lengthAdjust="spacing" textLength="181.3096" x="393" y="315.2129">creationDate: LocalDateTime</text><rect fill="none" height="6" style="stroke:#C82930;stroke-width:1.0;" width="6" x="381" y="326.5371"/><text fill="#000000" font-family="sans-serif" font-size="14" lengthAdjust="spacing" textLength="109.71" x="393" y="333.834">users: List&lt;User&gt;</text><rect fill="none" height="6" style="stroke:#C82930;stroke-width:1.0;" width="6" x="381" y="345.1582"/><text fill="#000000" font-family="sans-serif" font-size="14" lengthAdjust="spacing" textLength="166.5303" x="393" y="352.4551">messages: List&lt;Message&gt;</text><line style="stroke:#181818;stroke-width:0.5;" x1="374" x2="579.3096" y1="359.9688" y2="359.9688"/></g><!--class Message--><g id="elem_Message"><rect codeLine="88" fill="#F1F1F1" height="196.9688" id="Message" rx="2.5" ry="2.5" style="stroke:#181818;stroke-width:0.5;" width="207.3096" x="558" y="446.5"/><ellipse cx="629.0015" cy="462.5" fill="#ADD1B2" rx="11" ry="11" style="stroke:#181818;stroke-width:1.0;"/><path d="M631.7671,458.375 Q631.9233,458.1563 632.1108,458.0469 Q632.2983,457.9375 632.5171,457.9375 Q632.8921,457.9375 633.1265,458.2031 Q633.3608,458.4531 633.3608,459.0625 L633.3608,460.5156 Q633.3608,461.125 633.1265,461.3906 Q632.8921,461.6563 632.5171,461.6563 Q632.1733,461.6563 631.9702,461.4531 Q631.7671,461.2656 631.6577,460.75 Q631.6108,460.3906 631.4233,460.2031 Q631.0952,459.8281 630.4858,459.6094 Q629.8765,459.3906 629.2515,459.3906 Q628.4858,459.3906 627.8452,459.7188 Q627.2202,460.0469 626.7202,460.7969 Q626.2358,461.5469 626.2358,462.5781 L626.2358,463.6719 Q626.2358,464.9063 627.1265,465.7344 Q628.0171,466.5469 629.6108,466.5469 Q630.5483,466.5469 631.2046,466.2969 Q631.5952,466.1406 632.0171,465.7031 Q632.2827,465.4375 632.4233,465.3594 Q632.5796,465.2813 632.7827,465.2813 Q633.1108,465.2813 633.3608,465.5469 Q633.6265,465.7969 633.6265,466.1406 Q633.6265,466.4844 633.2827,466.8906 Q632.7827,467.4688 631.9858,467.7969 Q630.9077,468.25 629.6108,468.25 Q628.0952,468.25 626.8921,467.625 Q625.9077,467.125 625.2202,466.0625 Q624.5327,464.9844 624.5327,463.7031 L624.5327,462.5469 Q624.5327,461.2188 625.1421,460.0781 Q625.7671,458.9219 626.8608,458.3125 Q627.9546,457.6875 629.189,457.6875 Q629.9233,457.6875 630.564,457.8594 Q631.2202,458.0156 631.7671,458.375 Z " fill="#000000"/><text fill="#000000" font-family="sans-serif" font-size="14" lengthAdjust="spacing" textLength="56.8066" x="649.5015" y="468.2969">Message</text><line style="stroke:#181818;stroke-width:0.5;" x1="559" x2="764.3096" y1="478.5" y2="478.5"/><rect fill="none" height="6" style="stroke:#C82930;stroke-width:1.0;" width="6" x="566" y="490.3105"/><text fill="#000000" font-family="sans-serif" font-size="14" lengthAdjust="spacing" textLength="49.8203" x="578" y="497.6074">id: Long</text><rect fill="none" height="6" style="stroke:#C82930;stroke-width:1.0;" width="6" x="566" y="508.9316"/><text fill="#000000" font-family="sans-serif" font-size="14" lengthAdjust="spacing" textLength="122.1719" x="578" y="516.2285">type: MessageType</text><rect fill="none" height="6" style="stroke:#C82930;stroke-width:1.0;" width="6" x="566" y="527.5527"/><text fill="#000000" font-family="sans-serif" font-size="14" lengthAdjust="spacing" textLength="90.2754" x="578" y="534.8496">content: String</text><rect fill="none" height="6" style="stroke:#C82930;stroke-width:1.0;" width="6" x="566" y="546.1738"/><text fill="#000000" font-family="sans-serif" font-size="14" lengthAdjust="spacing" textLength="181.3096" x="578" y="553.4707">creationDate: LocalDateTime</text><rect fill="none" height="6" style="stroke:#C82930;stroke-width:1.0;" width="6" x="566" y="564.7949"/><text fill="#000000" font-family="sans-serif" font-size="14" lengthAdjust="spacing" textLength="80.1445" x="578" y="572.0918">sender: User</text><rect fill="none" height="6" style="stroke:#C82930;stroke-width:1.0;" width="6" x="566" y="583.416"/><text fill="#000000" font-family="sans-serif" font-size="14" lengthAdjust="spacing" textLength="63.8135" x="578" y="590.7129">chat: Chat</text><rect fill="none" height="6" style="stroke:#C82930;stroke-width:1.0;" width="6" x="566" y="602.0371"/><text fill="#000000" font-family="sans-serif" font-size="14" lengthAdjust="spacing" textLength="163.4199" x="578" y="609.334">repliedMessage: Message</text><rect fill="none" height="6" style="stroke:#C82930;stroke-width:1.0;" width="6" x="566" y="620.6582"/><text fill="#000000" font-family="sans-serif" font-size="14" lengthAdjust="spacing" textLength="147.8545" x="578" y="627.9551">attachment: Attachment</text><line style="stroke:#181818;stroke-width:0.5;" x1="559" x2="764.3096" y1="635.4688" y2="635.4688"/></g><!--class ChatType--><g id="elem_ChatType"><rect codeLine="83" fill="#F1F1F1" height="85.2422" id="ChatType" rx="2.5" ry="2.5" style="stroke:#181818;stroke-width:0.5;" width="92.6963" x="430" y="502.5"/><ellipse cx="445" cy="518.5" fill="#EB937F" rx="11" ry="11" style="stroke:#181818;stroke-width:1.0;"/><path d="M443.8594,519.2969 L443.8594,521.7969 L448.1875,521.7969 L448.1875,520.875 Q448.1875,520.2656 448.4219,520 Q448.6719,519.7344 449.0469,519.7344 Q449.4219,519.7344 449.6563,520 Q449.8906,520.2656 449.8906,520.875 L449.8906,523.5 L441.8906,523.5 Q441.2656,523.5 441,523.2656 Q440.75,523.0313 440.75,522.6406 Q440.75,522.2656 441.0156,522.0313 Q441.2813,521.7969 441.8906,521.7969 L442.1563,521.7969 L442.1563,515.1406 L441.8906,515.1406 Q441.2656,515.1406 441,514.9063 Q440.75,514.6719 440.75,514.2813 Q440.75,513.9063 441,513.6719 Q441.2656,513.4375 441.8906,513.4375 L449.5156,513.4375 L449.5156,516.0313 Q449.5156,516.6406 449.2813,516.9063 Q449.0625,517.1563 448.6719,517.1563 Q448.2969,517.1563 448.0625,516.9063 Q447.8281,516.6406 447.8281,516.0313 L447.8281,515.1406 L443.8594,515.1406 L443.8594,517.5938 L445.3438,517.5938 Q445.3438,516.9375 445.4688,516.75 Q445.7344,516.3438 446.2031,516.3438 Q446.5781,516.3438 446.8125,516.6094 Q447.0469,516.8594 447.0469,517.4688 L447.0469,519.4375 Q447.0469,519.9844 446.9219,520.1719 Q446.6563,520.5625 446.2031,520.5625 Q445.7344,520.5625 445.4688,520.1563 Q445.3438,519.9688 445.3438,519.2969 L443.8594,519.2969 Z " fill="#000000"/><text fill="#000000" font-family="sans-serif" font-size="14" lengthAdjust="spacing" textLength="60.6963" x="459" y="524.2969">ChatType</text><line style="stroke:#181818;stroke-width:0.5;" x1="431" x2="521.6963" y1="534.5" y2="534.5"/><text fill="#000000" font-family="sans-serif" font-size="14" lengthAdjust="spacing" textLength="63.793" x="436" y="553.6074">PRIVATE,</text><text fill="#000000" font-family="sans-serif" font-size="14" lengthAdjust="spacing" textLength="51.3379" x="436" y="572.2285">GROUP</text><line style="stroke:#181818;stroke-width:0.5;" x1="431" x2="521.6963" y1="579.7422" y2="579.7422"/></g><!--class MessageType--><g id="elem_MessageType"><rect codeLine="99" fill="#F1F1F1" height="215.5898" id="MessageType" rx="2.5" ry="2.5" style="stroke:#181818;stroke-width:0.5;" width="121.6826" x="600.5" y="722"/><ellipse cx="616.2884" cy="738" fill="#EB937F" rx="11" ry="11" style="stroke:#181818;stroke-width:1.0;"/><path d="M615.1478,738.7969 L615.1478,741.2969 L619.4759,741.2969 L619.4759,740.375 Q619.4759,739.7656 619.7103,739.5 Q619.9603,739.2344 620.3353,739.2344 Q620.7103,739.2344 620.9446,739.5 Q621.179,739.7656 621.179,740.375 L621.179,743 L613.179,743 Q612.554,743 612.2884,742.7656 Q612.0384,742.5313 612.0384,742.1406 Q612.0384,741.7656 612.304,741.5313 Q612.5696,741.2969 613.179,741.2969 L613.4446,741.2969 L613.4446,734.6406 L613.179,734.6406 Q612.554,734.6406 612.2884,734.4063 Q612.0384,734.1719 612.0384,733.7813 Q612.0384,733.4063 612.2884,733.1719 Q612.554,732.9375 613.179,732.9375 L620.804,732.9375 L620.804,735.5313 Q620.804,736.1406 620.5696,736.4063 Q620.3509,736.6563 619.9603,736.6563 Q619.5853,736.6563 619.3509,736.4063 Q619.1165,736.1406 619.1165,735.5313 L619.1165,734.6406 L615.1478,734.6406 L615.1478,737.0938 L616.6321,737.0938 Q616.6321,736.4375 616.7571,736.25 Q617.0228,735.8438 617.4915,735.8438 Q617.8665,735.8438 618.1009,736.1094 Q618.3353,736.3594 618.3353,736.9688 L618.3353,738.9375 Q618.3353,739.4844 618.2103,739.6719 Q617.9446,740.0625 617.4915,740.0625 Q617.0228,740.0625 616.7571,739.6563 Q616.6321,739.4688 616.6321,738.7969 L615.1478,738.7969 Z " fill="#000000"/><text fill="#000000" font-family="sans-serif" font-size="14" lengthAdjust="spacing" textLength="87.9307" x="630.4636" y="743.7969">MessageType</text><line style="stroke:#181818;stroke-width:0.5;" x1="601.5" x2="721.1826" y1="754" y2="754"/><text fill="#000000" font-family="sans-serif" font-size="14" lengthAdjust="spacing" textLength="39.6689" x="606.5" y="773.1074">TEXT,</text><text fill="#000000" font-family="sans-serif" font-size="14" lengthAdjust="spacing" textLength="35.7793" x="606.5" y="791.7285">JOIN,</text><text fill="#000000" font-family="sans-serif" font-size="14" lengthAdjust="spacing" textLength="49.0273" x="606.5" y="810.3496">LEAVE,</text><text fill="#000000" font-family="sans-serif" font-size="14" lengthAdjust="spacing" textLength="109.6826" x="606.5" y="828.9707">START_TYPING,</text><text fill="#000000" font-family="sans-serif" font-size="14" lengthAdjust="spacing" textLength="101.9102" x="606.5" y="847.5918">STOP_TYPING,</text><text fill="#000000" font-family="sans-serif" font-size="14" lengthAdjust="spacing" textLength="49.0068" x="606.5" y="866.2129">IMAGE,</text><text fill="#000000" font-family="sans-serif" font-size="14" lengthAdjust="spacing" textLength="47.4551" x="606.5" y="884.834">VIDEO,</text><text fill="#000000" font-family="sans-serif" font-size="14" lengthAdjust="spacing" textLength="48.2275" x="606.5" y="903.4551">AUDIO,</text><text fill="#000000" font-family="sans-serif" font-size="14" lengthAdjust="spacing" textLength="29.5654" x="606.5" y="922.0762">FILE</text><line style="stroke:#181818;stroke-width:0.5;" x1="601.5" x2="721.1826" y1="929.5898" y2="929.5898"/></g><path d="M6,517.5 L6,562.082 A0,0 0 0 0 6,562.082 L153.0454,562.082 A0,0 0 0 0 153.0454,562.082 L153.0454,543.791 L192,640.9004 L153.0454,535.791 L153.0454,527.5 L143.0454,517.5 L6,517.5 A0,0 0 0 0 6,517.5 " fill="#FEFFDD" style="stroke:#181818;stroke-width:0.5;"/><path d="M143.0454,517.5 L143.0454,527.5 L153.0454,527.5 L143.0454,517.5 " fill="#FEFFDD" style="stroke:#181818;stroke-width:0.5;"/><text fill="#000000" font-family="sans-serif" font-size="13" lengthAdjust="spacing" textLength="126.0454" x="12" y="536.5283">Represents the user's</text><text fill="#000000" font-family="sans-serif" font-size="13" lengthAdjust="spacing" textLength="114.8799" x="12" y="553.8193">last login timestamp</text><!--class Attachment--><g id="elem_Attachment"><rect codeLine="111" fill="#F1F1F1" height="141.1055" id="Attachment" rx="2.5" ry="2.5" style="stroke:#181818;stroke-width:0.5;" width="135.6963" x="964.5" y="759.5"/><ellipse cx="994.2973" cy="775.5" fill="#ADD1B2" rx="11" ry="11" style="stroke:#181818;stroke-width:1.0;"/><path d="M997.0629,771.375 Q997.2191,771.1563 997.4066,771.0469 Q997.5941,770.9375 997.8129,770.9375 Q998.1879,770.9375 998.4223,771.2031 Q998.6566,771.4531 998.6566,772.0625 L998.6566,773.5156 Q998.6566,774.125 998.4223,774.3906 Q998.1879,774.6563 997.8129,774.6563 Q997.4691,774.6563 997.266,774.4531 Q997.0629,774.2656 996.9535,773.75 Q996.9066,773.3906 996.7191,773.2031 Q996.391,772.8281 995.7816,772.6094 Q995.1723,772.3906 994.5473,772.3906 Q993.7816,772.3906 993.141,772.7188 Q992.516,773.0469 992.016,773.7969 Q991.5316,774.5469 991.5316,775.5781 L991.5316,776.6719 Q991.5316,777.9063 992.4223,778.7344 Q993.3129,779.5469 994.9066,779.5469 Q995.8441,779.5469 996.5004,779.2969 Q996.891,779.1406 997.3129,778.7031 Q997.5785,778.4375 997.7191,778.3594 Q997.8754,778.2813 998.0785,778.2813 Q998.4066,778.2813 998.6566,778.5469 Q998.9223,778.7969 998.9223,779.1406 Q998.9223,779.4844 998.5785,779.8906 Q998.0785,780.4688 997.2816,780.7969 Q996.2035,781.25 994.9066,781.25 Q993.391,781.25 992.1879,780.625 Q991.2035,780.125 990.516,779.0625 Q989.8285,777.9844 989.8285,776.7031 L989.8285,775.5469 Q989.8285,774.2188 990.4379,773.0781 Q991.0629,771.9219 992.1566,771.3125 Q993.2504,770.6875 994.4848,770.6875 Q995.2191,770.6875 995.8598,770.8594 Q996.516,771.0156 997.0629,771.375 Z " fill="#000000"/><text fill="#000000" font-family="sans-serif" font-size="14" lengthAdjust="spacing" textLength="70.8135" x="1011.5855" y="781.2969">Attachment</text><line style="stroke:#181818;stroke-width:0.5;" x1="965.5" x2="1099.1963" y1="791.5" y2="791.5"/><rect fill="none" height="6" style="stroke:#C82930;stroke-width:1.0;" width="6" x="972.5" y="803.3105"/><text fill="#000000" font-family="sans-serif" font-size="14" lengthAdjust="spacing" textLength="49.8203" x="984.5" y="810.6074">id: Long</text><rect fill="none" height="6" style="stroke:#C82930;stroke-width:1.0;" width="6" x="972.5" y="821.9316"/><text fill="#000000" font-family="sans-serif" font-size="14" lengthAdjust="spacing" textLength="99.5928" x="984.5" y="829.2285">fileName: String</text><rect fill="none" height="6" style="stroke:#C82930;stroke-width:1.0;" width="6" x="972.5" y="840.5527"/><text fill="#000000" font-family="sans-serif" font-size="14" lengthAdjust="spacing" textLength="80.1309" x="984.5" y="847.8496">fileUrl: String</text><rect fill="none" height="6" style="stroke:#C82930;stroke-width:1.0;" width="6" x="972.5" y="859.1738"/><text fill="#000000" font-family="sans-serif" font-size="14" lengthAdjust="spacing" textLength="59.1445" x="984.5" y="866.4707">size: long</text><rect fill="none" height="6" style="stroke:#C82930;stroke-width:1.0;" width="6" x="972.5" y="877.7949"/><text fill="#000000" font-family="sans-serif" font-size="14" lengthAdjust="spacing" textLength="109.6963" x="984.5" y="885.0918">mimeType: String</text><line style="stroke:#181818;stroke-width:0.5;" x1="965.5" x2="1099.1963" y1="892.6055" y2="892.6055"/></g><!--class Image--><g id="elem_Image"><rect codeLine="119" fill="#F1F1F1" height="66.6211" id="Image" rx="2.5" ry="2.5" style="stroke:#181818;stroke-width:0.5;" width="148.9375" x="790" y="1035"/><ellipse cx="840.7637" cy="1051" fill="#ADD1B2" rx="11" ry="11" style="stroke:#181818;stroke-width:1.0;"/><path d="M843.5293,1046.875 Q843.6855,1046.6563 843.873,1046.5469 Q844.0605,1046.4375 844.2793,1046.4375 Q844.6543,1046.4375 844.8887,1046.7031 Q845.123,1046.9531 845.123,1047.5625 L845.123,1049.0156 Q845.123,1049.625 844.8887,1049.8906 Q844.6543,1050.1563 844.2793,1050.1563 Q843.9355,1050.1563 843.7324,1049.9531 Q843.5293,1049.7656 843.4199,1049.25 Q843.373,1048.8906 843.1855,1048.7031 Q842.8574,1048.3281 842.248,1048.1094 Q841.6387,1047.8906 841.0137,1047.8906 Q840.248,1047.8906 839.6074,1048.2188 Q838.9824,1048.5469 838.4824,1049.2969 Q837.998,1050.0469 837.998,1051.0781 L837.998,1052.1719 Q837.998,1053.4063 838.8887,1054.2344 Q839.7793,1055.0469 841.373,1055.0469 Q842.3105,1055.0469 842.9668,1054.7969 Q843.3574,1054.6406 843.7793,1054.2031 Q844.0449,1053.9375 844.1855,1053.8594 Q844.3418,1053.7813 844.5449,1053.7813 Q844.873,1053.7813 845.123,1054.0469 Q845.3887,1054.2969 845.3887,1054.6406 Q845.3887,1054.9844 845.0449,1055.3906 Q844.5449,1055.9688 843.748,1056.2969 Q842.6699,1056.75 841.373,1056.75 Q839.8574,1056.75 838.6543,1056.125 Q837.6699,1055.625 836.9824,1054.5625 Q836.2949,1053.4844 836.2949,1052.2031 L836.2949,1051.0469 Q836.2949,1049.7188 836.9043,1048.5781 Q837.5293,1047.4219 838.623,1046.8125 Q839.7168,1046.1875 840.9512,1046.1875 Q841.6855,1046.1875 842.3262,1046.3594 Q842.9824,1046.5156 843.5293,1046.875 Z " fill="#000000"/><text fill="#000000" font-family="sans-serif" font-size="14" lengthAdjust="spacing" textLength="38.9102" x="861.2637" y="1056.7969">Image</text><line style="stroke:#181818;stroke-width:0.5;" x1="791" x2="937.9375" y1="1067" y2="1067"/><rect fill="none" height="6" style="stroke:#C82930;stroke-width:1.0;" width="6" x="798" y="1078.8105"/><text fill="#000000" font-family="sans-serif" font-size="14" lengthAdjust="spacing" textLength="122.9375" x="810" y="1086.1074">thumbnailUrl: String</text><line style="stroke:#181818;stroke-width:0.5;" x1="791" x2="937.9375" y1="1093.6211" y2="1093.6211"/></g><!--class Audio--><g id="elem_Audio"><rect codeLine="123" fill="#F1F1F1" height="66.6211" id="Audio" rx="2.5" ry="2.5" style="stroke:#181818;stroke-width:0.5;" width="115.5166" x="974.5" y="1035"/><ellipse cx="1010.9695" cy="1051" fill="#ADD1B2" rx="11" ry="11" style="stroke:#181818;stroke-width:1.0;"/><path d="M1013.7351,1046.875 Q1013.8914,1046.6563 1014.0789,1046.5469 Q1014.2664,1046.4375 1014.4851,1046.4375 Q1014.8601,1046.4375 1015.0945,1046.7031 Q1015.3289,1046.9531 1015.3289,1047.5625 L1015.3289,1049.0156 Q1015.3289,1049.625 1015.0945,1049.8906 Q1014.8601,1050.1563 1014.4851,1050.1563 Q1014.1414,1050.1563 1013.9382,1049.9531 Q1013.7351,1049.7656 1013.6257,1049.25 Q1013.5789,1048.8906 1013.3914,1048.7031 Q1013.0632,1048.3281 1012.4539,1048.1094 Q1011.8445,1047.8906 1011.2195,1047.8906 Q1010.4539,1047.8906 1009.8132,1048.2188 Q1009.1882,1048.5469 1008.6882,1049.2969 Q1008.2039,1050.0469 1008.2039,1051.0781 L1008.2039,1052.1719 Q1008.2039,1053.4063 1009.0945,1054.2344 Q1009.9851,1055.0469 1011.5789,1055.0469 Q1012.5164,1055.0469 1013.1726,1054.7969 Q1013.5632,1054.6406 1013.9851,1054.2031 Q1014.2507,1053.9375 1014.3914,1053.8594 Q1014.5476,1053.7813 1014.7507,1053.7813 Q1015.0789,1053.7813 1015.3289,1054.0469 Q1015.5945,1054.2969 1015.5945,1054.6406 Q1015.5945,1054.9844 1015.2507,1055.3906 Q1014.7507,1055.9688 1013.9539,1056.2969 Q1012.8757,1056.75 1011.5789,1056.75 Q1010.0632,1056.75 1008.8601,1056.125 Q1007.8757,1055.625 1007.1882,1054.5625 Q1006.5007,1053.4844 1006.5007,1052.2031 L1006.5007,1051.0469 Q1006.5007,1049.7188 1007.1101,1048.5781 Q1007.7351,1047.4219 1008.8289,1046.8125 Q1009.9226,1046.1875 1011.157,1046.1875 Q1011.8914,1046.1875 1012.532,1046.3594 Q1013.1882,1046.5156 1013.7351,1046.875 Z " fill="#000000"/><text fill="#000000" font-family="sans-serif" font-size="14" lengthAdjust="spacing" textLength="35.8066" x="1029.7405" y="1056.7969">Audio</text><line style="stroke:#181818;stroke-width:0.5;" x1="975.5" x2="1089.0166" y1="1067" y2="1067"/><rect fill="none" height="6" style="stroke:#C82930;stroke-width:1.0;" width="6" x="982.5" y="1078.8105"/><text fill="#000000" font-family="sans-serif" font-size="14" lengthAdjust="spacing" textLength="89.5166" x="994.5" y="1086.1074">duration: Long</text><line style="stroke:#181818;stroke-width:0.5;" x1="975.5" x2="1089.0166" y1="1093.6211" y2="1093.6211"/></g><!--class Video--><g id="elem_Video"><rect codeLine="127" fill="#F1F1F1" height="85.2422" id="Video" rx="2.5" ry="2.5" style="stroke:#181818;stroke-width:0.5;" width="148.9375" x="1126" y="1026"/><ellipse cx="1178.3154" cy="1042" fill="#ADD1B2" rx="11" ry="11" style="stroke:#181818;stroke-width:1.0;"/><path d="M1181.0811,1037.875 Q1181.2373,1037.6563 1181.4248,1037.5469 Q1181.6123,1037.4375 1181.8311,1037.4375 Q1182.2061,1037.4375 1182.4404,1037.7031 Q1182.6748,1037.9531 1182.6748,1038.5625 L1182.6748,1040.0156 Q1182.6748,1040.625 1182.4404,1040.8906 Q1182.2061,1041.1563 1181.8311,1041.1563 Q1181.4873,1041.1563 1181.2842,1040.9531 Q1181.0811,1040.7656 1180.9717,1040.25 Q1180.9248,1039.8906 1180.7373,1039.7031 Q1180.4092,1039.3281 1179.7998,1039.1094 Q1179.1904,1038.8906 1178.5654,1038.8906 Q1177.7998,1038.8906 1177.1592,1039.2188 Q1176.5342,1039.5469 1176.0342,1040.2969 Q1175.5498,1041.0469 1175.5498,1042.0781 L1175.5498,1043.1719 Q1175.5498,1044.4063 1176.4404,1045.2344 Q1177.3311,1046.0469 1178.9248,1046.0469 Q1179.8623,1046.0469 1180.5186,1045.7969 Q1180.9092,1045.6406 1181.3311,1045.2031 Q1181.5967,1044.9375 1181.7373,1044.8594 Q1181.8936,1044.7813 1182.0967,1044.7813 Q1182.4248,1044.7813 1182.6748,1045.0469 Q1182.9404,1045.2969 1182.9404,1045.6406 Q1182.9404,1045.9844 1182.5967,1046.3906 Q1182.0967,1046.9688 1181.2998,1047.2969 Q1180.2217,1047.75 1178.9248,1047.75 Q1177.4092,1047.75 1176.2061,1047.125 Q1175.2217,1046.625 1174.5342,1045.5625 Q1173.8467,1044.4844 1173.8467,1043.2031 L1173.8467,1042.0469 Q1173.8467,1040.7188 1174.4561,1039.5781 Q1175.0811,1038.4219 1176.1748,1037.8125 Q1177.2686,1037.1875 1178.5029,1037.1875 Q1179.2373,1037.1875 1179.8779,1037.3594 Q1180.5342,1037.5156 1181.0811,1037.875 Z " fill="#000000"/><text fill="#000000" font-family="sans-serif" font-size="14" lengthAdjust="spacing" textLength="35.8066" x="1198.8154" y="1047.7969">Video</text><line style="stroke:#181818;stroke-width:0.5;" x1="1127" x2="1273.9375" y1="1058" y2="1058"/><rect fill="none" height="6" style="stroke:#C82930;stroke-width:1.0;" width="6" x="1134" y="1069.8105"/><text fill="#000000" font-family="sans-serif" font-size="14" lengthAdjust="spacing" textLength="122.9375" x="1146" y="1077.1074">thumbnailUrl: String</text><rect fill="none" height="6" style="stroke:#C82930;stroke-width:1.0;" width="6" x="1134" y="1088.4316"/><text fill="#000000" font-family="sans-serif" font-size="14" lengthAdjust="spacing" textLength="89.5166" x="1146" y="1095.7285">duration: Long</text><line style="stroke:#181818;stroke-width:0.5;" x1="1127" x2="1273.9375" y1="1103.2422" y2="1103.2422"/></g><!--class File--><g id="elem_File"><rect codeLine="132" fill="#F1F1F1" height="48" id="File" rx="2.5" ry="2.5" style="stroke:#181818;stroke-width:0.5;" width="54.5586" x="1310" y="1044.5"/><ellipse cx="1325" cy="1060.5" fill="#ADD1B2" rx="11" ry="11" style="stroke:#181818;stroke-width:1.0;"/><path d="M1327.7656,1056.375 Q1327.9219,1056.1563 1328.1094,1056.0469 Q1328.2969,1055.9375 1328.5156,1055.9375 Q1328.8906,1055.9375 1329.125,1056.2031 Q1329.3594,1056.4531 1329.3594,1057.0625 L1329.3594,1058.5156 Q1329.3594,1059.125 1329.125,1059.3906 Q1328.8906,1059.6563 1328.5156,1059.6563 Q1328.1719,1059.6563 1327.9688,1059.4531 Q1327.7656,1059.2656 1327.6563,1058.75 Q1327.6094,1058.3906 1327.4219,1058.2031 Q1327.0938,1057.8281 1326.4844,1057.6094 Q1325.875,1057.3906 1325.25,1057.3906 Q1324.4844,1057.3906 1323.8438,1057.7188 Q1323.2188,1058.0469 1322.7188,1058.7969 Q1322.2344,1059.5469 1322.2344,1060.5781 L1322.2344,1061.6719 Q1322.2344,1062.9063 1323.125,1063.7344 Q1324.0156,1064.5469 1325.6094,1064.5469 Q1326.5469,1064.5469 1327.2031,1064.2969 Q1327.5938,1064.1406 1328.0156,1063.7031 Q1328.2813,1063.4375 1328.4219,1063.3594 Q1328.5781,1063.2813 1328.7813,1063.2813 Q1329.1094,1063.2813 1329.3594,1063.5469 Q1329.625,1063.7969 1329.625,1064.1406 Q1329.625,1064.4844 1329.2813,1064.8906 Q1328.7813,1065.4688 1327.9844,1065.7969 Q1326.9063,1066.25 1325.6094,1066.25 Q1324.0938,1066.25 1322.8906,1065.625 Q1321.9063,1065.125 1321.2188,1064.0625 Q1320.5313,1062.9844 1320.5313,1061.7031 L1320.5313,1060.5469 Q1320.5313,1059.2188 1321.1406,1058.0781 Q1321.7656,1056.9219 1322.8594,1056.3125 Q1323.9531,1055.6875 1325.1875,1055.6875 Q1325.9219,1055.6875 1326.5625,1055.8594 Q1327.2188,1056.0156 1327.7656,1056.375 Z " fill="#000000"/><text fill="#000000" font-family="sans-serif" font-size="14" lengthAdjust="spacing" textLength="22.5586" x="1339" y="1066.2969">File</text><line style="stroke:#181818;stroke-width:0.5;" x1="1311" x2="1363.5586" y1="1076.5" y2="1076.5"/><line style="stroke:#181818;stroke-width:0.5;" x1="1311" x2="1363.5586" y1="1084.5" y2="1084.5"/></g><!--link User to UserCountry--><g id="link_User_UserCountry"><path codeLine="5" d="M291.5,662.15 C291.5,698.69 291.5,731.53 291.5,762.63 " fill="none" id="User-to-UserCountry" style="stroke:#181818;stroke-width:1.0;"/><polygon fill="#181818" points="291.5,768.63,295.5,759.63,291.5,763.63,287.5,759.63,291.5,768.63" style="stroke:#181818;stroke-width:1.0;"/></g><!--link UserCountry to UserChat--><g id="link_UserCountry_UserChat"><path codeLine="6" d="M291.5,891.11 C291.5,923.68 291.5,957.92 291.5,991.83 " fill="none" id="UserCountry-to-UserChat" style="stroke:#181818;stroke-width:1.0;"/><polygon fill="#181818" points="291.5,997.83,295.5,988.83,291.5,992.83,287.5,988.83,291.5,997.83" style="stroke:#181818;stroke-width:1.0;"/></g><!--link Country to Chat--><g id="link_Country_Chat"><path codeLine="9" d="M476.5,111.03 C476.5,129.17 476.5,144.18 476.5,164.84 " fill="none" id="Country-to-Chat" style="stroke:#181818;stroke-width:1.0;"/><polygon fill="#181818" points="476.5,170.84,480.5,161.84,476.5,165.84,472.5,161.84,476.5,170.84" style="stroke:#181818;stroke-width:1.0;"/></g><!--link Chat to Message--><g id="link_Chat_Message"><path codeLine="13" d="M569,368.18 C569,393.5 569,414.75 569,440.08 " fill="none" id="Chat-to-Message" style="stroke:#181818;stroke-width:1.0;"/><polygon fill="#181818" points="569,446.08,573,437.08,569,441.08,565,437.08,569,446.08" style="stroke:#181818;stroke-width:1.0;"/></g><!--link Chat to User--><g id="link_Chat_User"><path codeLine="14" d="M384,368.18 C384,387.48 384,401.9 384,421.73 " fill="none" id="Chat-to-User" style="stroke:#181818;stroke-width:1.0;"/><polygon fill="#181818" points="384,427.73,388,418.73,384,422.73,380,418.73,384,427.73" style="stroke:#181818;stroke-width:1.0;"/></g><!--link Chat to ChatType--><g id="link_Chat_ChatType"><path codeLine="15" d="M476.5,368.18 C476.5,414.19 476.5,460.54 476.5,496.27 " fill="none" id="Chat-to-ChatType" style="stroke:#181818;stroke-width:1.0;"/><polygon fill="#181818" points="476.5,502.27,480.5,493.27,476.5,497.27,472.5,493.27,476.5,502.27" style="stroke:#181818;stroke-width:1.0;"/></g><!--link Message to MessageType--><g id="link_Message_MessageType"><path codeLine="16" d="M661.5,643.88 C661.5,668.96 661.5,690.04 661.5,715.56 " fill="none" id="Message-to-MessageType" style="stroke:#181818;stroke-width:1.0;"/><polygon fill="#181818" points="661.5,721.56,665.5,712.56,661.5,716.56,657.5,712.56,661.5,721.56" style="stroke:#181818;stroke-width:1.0;"/></g><!--reverse link Attachment to Image--><g id="link_Attachment_Image"><path codeLine="134" d="M969.5,918.74 C969.5,989.21 969.5,1069 969.5,1069 C969.5,1069 956.23,1069 939.13,1069 " fill="none" id="Attachment-backto-Image" style="stroke:#181818;stroke-width:1.0;"/><polygon fill="none" points="969.5,900.74,963.5,918.74,975.5,918.74,969.5,900.74" style="stroke:#181818;stroke-width:1.0;"/></g><!--reverse link Attachment to Audio--><g id="link_Attachment_Audio"><path codeLine="135" d="M1032.5,918.59 C1032.5,962.96 1032.5,1000.17 1032.5,1034.89 " fill="none" id="Attachment-backto-Audio" style="stroke:#181818;stroke-width:1.0;"/><polygon fill="none" points="1032.5,900.59,1026.5,918.59,1038.5,918.59,1032.5,900.59" style="stroke:#181818;stroke-width:1.0;"/></g><!--reverse link Attachment to Video--><g id="link_Attachment_Video"><path codeLine="136" d="M1095.5,918.58 C1095.5,976.5 1095.5,1031 1095.5,1031 C1095.5,1031 1108.77,1031 1125.87,1031 " fill="none" id="Attachment-backto-Video" style="stroke:#181818;stroke-width:1.0;"/><polygon fill="none" points="1095.5,900.58,1089.5,918.58,1101.5,918.58,1095.5,900.58" style="stroke:#181818;stroke-width:1.0;"/></g><!--reverse link Attachment to File--><g id="link_Attachment_File"><path codeLine="137" d="M1118.57,830 C1208.46,830 1337.5,830 1337.5,830 C1337.5,830 1337.5,983.69 1337.5,1044.32 " fill="none" id="Attachment-backto-File" style="stroke:#181818;stroke-width:1.0;"/><polygon fill="none" points="1100.57,830,1118.57,836,1118.57,824,1100.57,830" style="stroke:#181818;stroke-width:1.0;"/></g><!--link Message to Attachment--><g id="link_Message_Attachment"><path codeLine="140" d="M743.75,643.88 C743.75,726.19 743.75,830 743.75,830 C743.75,830 873.07,830 958.44,830 " fill="none" id="Message-to-Attachment" style="stroke:#181818;stroke-width:1.0;"/><polygon fill="#181818" points="964.44,830,955.44,826,959.44,830,955.44,834,964.44,830" style="stroke:#181818;stroke-width:1.0;"/><text fill="#000000" font-family="sans-serif" font-size="13" lengthAdjust="spacing" textLength="7.23" x="753.03" y="826.0283">1</text></g><!--SRC=[ZPLBRzim383l_XL2BxqiXrsDee3Hf867j0bI9zXEWnepZb1RCYHvGzVrlu-I_91YfrqEYVWGoO-Y5FN2U4qbhKZ9EEZN6eYG-YIYI8i2z0aaUOi8VdOAbxFPhLtSYOPh-TeRMdcmdwYEhFKiYldupjRHADylkwEBzNq0fMW1OuF9EDQQHOOylQNTxyVgxUyH5d1zAAbIZlGjkYPaHbWUavNWXPCEjd862fLCwHiF_TPvDAXvf1N4v0aTktqrXlqjP1vgZU-YegmCrLAKk7sBtqxMuWLubp4pGfkB_gAQofWazhVLFOj63_4GAc0Aa3ubcWIQv9d6EQEv13F1CaOn6YJHAr4KaAzvRq34Y0iDf8IZ9k9eKUFOzyNDMwWbAE1Q4HmlM-krGhrn8wKe62UQLQ0qhUe8U4vCIBzvtT1EzD04YxiXx5hw6fFXag0IXp7eCSgtKN0yTd3_8pownTszSTQxBcDuDLt3ja3pTjhJBcoVDwJYtZcJT6vrnv8MTo8Fpz-dEIEvHC7FPoW7TP2irapmCFQbzfcx6lkt6jKIg0amfnfChWCjpJB3a-oRutVTpLhbkj4PskPO1k1DrQUm69jjka-onHTSBhVhtMOWxPwJ2LXjImtV64F6DKvWIFi90Ovi_j7nIwXB1jq1nzuRYHT8QteuLJPbqgzxJAyyov0jlcS6yziwVJI_gqMojznFMRBDVcO_DkdZqidhZIUc3ydI-ktJ-M9j5ibkdjh5VRfQ30qRQfZgsP6LC7feZ78dmnT5iJ_eL7RxAcoL6utXGN3vqceu7drggcUEZvCVRQYioPbeFVD6KZUKuLNPinp4Hz4-sdoF7EGDHQy7DtzdCrVZI6lh6Mbj1IEj2Or_NObIui1iSXNv_tIUVqoklbv5_m00]--></g></svg>